<svg xmlns="http://www.w3.org/2000/svg" width="36" height="36"><g fill="none" fill-rule="evenodd"><circle cx="18" cy="18" r="18" fill="#EAECEF"/><path fill="#353A45" fill-rule="nonzero" d="M13.993 16.114a1 1 0 01.078 1.327l-.078.088-1.768 1.767a3.169 3.169 0 002.24 5.406c.77 0 1.51-.28 2.086-.784l.153-.143 1.767-1.768a1 1 0 011.492 1.327l-.077.087-1.768 1.768a5.168 5.168 0 01-7.458-7.15l.151-.157 1.768-1.768a1 1 0 011.414 0zm7.071-1.178a1 1 0 01.078 1.327l-.078.087-4.714 4.714a1 1 0 01-1.492-1.327l.078-.087 4.714-4.714a1 1 0 011.414 0zm.472-5.638a5.166 5.166 0 013.804 8.663l-.151.157-1.768 1.768a1 1 0 01-1.492-1.327l.078-.088 1.768-1.767a3.169 3.169 0 00-2.24-5.406c-.77 0-1.51.28-2.086.784l-.153.143-1.767 1.768a1 1 0 01-1.492-1.327l.077-.087 1.768-1.768a5.168 5.168 0 013.654-1.513z"/></g></svg>