<svg xmlns="http://www.w3.org/2000/svg" xmlns:xlink="http://www.w3.org/1999/xlink" version="1.1" x="0px" y="0px" viewBox="0 0 64 80" style="enable-background:new 0 0 64 64;" xml:space="preserve"><g><g><path d="M55,20H35c0-0.0403996-0.0103989-0.0779991-0.012001-0.118l12.3836021-4.9532995l-0.7432022-1.8574009    l-12.3872986,4.9546995C33.6910019,17.4020996,32.8953018,17,32,17c-0.5487003,0-1.0566998,0.1588001-1.4997005,0.4171009    L19.6459999,8.2363005l-1.2919998,1.5273991l10.848999,9.1761999C29.0771008,19.2707996,29,19.6256008,29,20H9v30h5.7803001l-1,5    h3.7861004l2.9997997-5h22.8675995l2.9998016,5h3.7860985l-1-5H55V20z M32,19c0.5513,0,1,0.4487,1,1h-2    C31,19.4487,31.4487,19,32,19z M16.4335995,53h-0.2138996l0.6000004-3h1.4139996L16.4335995,53z M47.7803001,53h-0.2139015    l-1.8000984-3h1.4140015L47.7803001,53z M53,48H11V22h42V48z"/><path d="M22,35c0,5.5141983,4.4857998,10,10,10s10-4.4858017,10-10s-4.4858017-10-10-10S22,29.4857998,22,35z     M35.6556015,27.8924999L33.7696991,30.25h-3.4898987l-1.9246006-2.3626995C29.4496994,27.3239994,30.6867008,27,32,27    C33.3176003,27,34.5584984,27.3257999,35.6556015,27.8924999z M33.6836014,37.75h-3.3672009L28.6660004,35l1.6504002-2.75    h3.3672009L35.3339996,35L33.6836014,37.75z M26.7008991,29.0230007l1.8537006,2.2754993L26.9339008,34H24.0695    C24.3171005,32.0275002,25.2845001,30.2803001,26.7008991,29.0230007z M24.0695,36h2.8644009l1.6008987,2.668499    l-1.8412991,2.3017006C25.2810993,39.7134018,24.3167,37.9688988,24.0695,36z M28.3444004,42.1074982L30.2303009,39.75h3.5393982    l1.8859024,2.3574982C34.5584984,42.6741982,33.3176003,43,32,43S29.4414997,42.6741982,28.3444004,42.1074982z     M37.3064995,40.9701996l-1.841301-2.3017006L37.0661011,36H39.9305    C39.6833,37.9688988,38.7188988,39.7134018,37.3064995,40.9701996z M39.9305,34h-2.864399l-1.6009026-2.6685009    l1.841301-2.3016987C38.7188988,30.2866001,39.6833,32.0311012,39.9305,34z"/><rect x="12.3431454" y="27.0001507" transform="matrix(0.7071068 -0.7071068 0.7071068 0.7071068 -14.5269117 20.9289322)" width="11.3137083" height="1.9996979"/><rect x="12.3786793" y="24.5001507" transform="matrix(0.7071068 -0.7071068 0.7071068 0.7071068 -13.7842712 17.7218246)" width="4.2426405" height="1.9996979"/></g></g></svg>