<svg xmlns="http://www.w3.org/2000/svg" width="36" height="36"><g fill="none"><path fill="#3AC34C" d="M.01 36l2.532-9.244A17.804 17.804 0 01.16 17.838C.164 8.002 8.17 0 18.005 0a17.733 17.733 0 0112.622 5.231 17.73 17.73 0 015.223 12.621c-.005 9.836-8.01 17.839-17.845 17.839h-.008A17.845 17.845 0 019.47 33.52L.01 36z"/><path fill="#FFF" d="M13.544 10.38c-.361-.869-.729-.75-1.002-.765-.26-.013-.558-.015-.855-.015-.298 0-.78.111-1.19.557-.408.447-1.56 1.525-1.56 3.719s1.598 4.314 1.821 4.61c.223.299 3.144 4.8 7.617 6.731 1.064.46 1.894.734 2.542.94 1.068.338 2.04.291 2.808.176.856-.128 2.638-1.078 3.01-2.12.37-1.041.37-1.934.26-2.12-.112-.185-.409-.296-.855-.52-.446-.223-2.638-1.301-3.047-1.45-.408-.149-.705-.223-1.003.223-.297.446-1.151 1.45-1.412 1.747-.26.298-.52.336-.966.113-.446-.223-1.882-.694-3.585-2.212-1.326-1.183-2.22-2.643-2.48-3.089-.26-.446-.028-.687.194-.91.201-.2.447-.52.67-.78.223-.26.297-.447.446-.744.148-.297.074-.558-.038-.781-.11-.223-1.003-2.417-1.375-3.31z"/></g></svg>