<?xml version="1.0" encoding="UTF-8"?>
<svg version="1.1" xmlns="http://www.w3.org/2000/svg" width="615" height="169">
<path d="M0 0 C202.95 0 405.9 0 615 0 C615 55.77 615 111.54 615 169 C412.05 169 209.1 169 0 169 C0 113.23 0 57.46 0 0 Z " fill="#2A176E" transform="translate(0,0)"/>
<path d="M0 0 C90.75 0 181.5 0 275 0 C275 55.77 275 111.54 275 169 C184.25 169 93.5 169 0 169 C0 113.23 0 57.46 0 0 Z " fill="#D8251D" transform="translate(340,0)"/>
<path d="M0 0 C10.89 0 21.78 0 33 0 C33 17.16 33 34.32 33 52 C39.19719095 49.93880829 39.19719095 49.93880829 45.37890625 47.83203125 C59.34148135 43.36058082 73.33628909 43.42520595 87 49 C90.76185724 51.29697508 93.88250073 53.89419867 97 57 C97.59425781 57.59167969 98.18851562 58.18335938 98.80078125 58.79296875 C104.98429311 65.49816647 107.41557014 72.76000302 109.38671875 81.55859375 C109.76076286 83.93193861 109.76076286 83.93193861 111 85 C112.18816329 103.58209479 109.59889102 118.3822726 97.27734375 133.05078125 C89.00576758 141.86988492 79.44173886 146.48452903 68 150 C66.98550781 150.36867187 65.97101563 150.73734375 64.92578125 151.1171875 C59.23905025 152.70650944 53.22766637 152.33793977 47.375 152.3125 C46.09061035 152.30903564 44.8062207 152.30557129 43.48291016 152.30200195 C28.31850735 152.13107426 14.65510916 149.99684795 0 146 C0 97.82 0 49.64 0 0 Z " fill="#FAF9FB" transform="translate(16,0)"/>
<path d="M0 0 C12.54 0 25.08 0 38 0 C38 29.04 38 58.08 38 88 C42.95 88 47.9 88 53 88 C53 95.59 53 103.18 53 111 C48.05 111 43.1 111 38 111 C38 121.56 38 132.12 38 143 C27.44 143 16.88 143 6 143 C6 132.44 6 121.88 6 111 C-17.1 111 -40.2 111 -64 111 C-64 83 -64 83 -57 75 C-54.736929 71.89419544 -52.54551139 68.76443783 -50.38867188 65.5859375 C-49.30528127 64.02423248 -48.15795585 62.50724783 -47 61 C-46.34 61 -45.68 61 -45 61 C-44.7628125 60.28714844 -44.525625 59.57429688 -44.28125 58.83984375 C-42.78539349 55.52433253 -40.89687602 53.29691077 -38.5 50.5625 C-34.04045756 45.40141949 -30.05242674 40.01365681 -26.22460938 34.36938477 C-25.19628149 32.87969782 -24.10366497 31.43476446 -23 30 C-22.34 30 -21.68 30 -21 30 C-20.88527344 29.41734375 -20.77054688 28.8346875 -20.65234375 28.234375 C-19.95175938 25.83476865 -19.01807405 24.27139067 -17.5625 22.25 C-17.13066406 21.63640625 -16.69882812 21.0228125 -16.25390625 20.390625 C-15.84011719 19.93171875 -15.42632813 19.4728125 -15 19 C-14.34 19 -13.68 19 -13 19 C-12.773125 18.443125 -12.54625 17.88625 -12.3125 17.3125 C-11 15 -11 15 -8.625 12.6875 C-5.62268473 9.61370104 -4.02708794 6.77457754 -2 3 C-1.34 2.01 -0.68 1.02 0 0 Z " fill="#FDFBFA" transform="translate(541,8)"/>
<path d="M0 0 C6.00180657 5.41679293 11.49957963 12.1600218 12.44824219 20.43066406 C12.56687073 23.23617837 12.57334907 26.02043621 12.5390625 28.828125 C12.55066406 29.77042969 12.56226563 30.71273437 12.57421875 31.68359375 C12.53772758 40.47796518 10.16452251 47.38987808 6.2265625 55.203125 C5.50146484 56.66492188 5.50146484 56.66492188 4.76171875 58.15625 C3.11901748 61.03198133 1.3838752 63.49563538 -0.8359375 65.953125 C-1.4959375 65.953125 -2.1559375 65.953125 -2.8359375 65.953125 C-3.09632813 66.53707031 -3.35671875 67.12101562 -3.625 67.72265625 C-7.99296094 75.76815849 -17.34381811 81.97374719 -24.8359375 86.953125 C-25.4959375 86.953125 -26.1559375 86.953125 -26.8359375 86.953125 C-26.8359375 87.613125 -26.8359375 88.273125 -26.8359375 88.953125 C-28.56640625 90.36328125 -28.56640625 90.36328125 -31.0234375 92.015625 C-31.93351562 92.63308594 -32.84359375 93.25054687 -33.78125 93.88671875 C-34.78929687 94.56863281 -35.79734375 95.25054687 -36.8359375 95.953125 C-38.46913039 97.10423083 -40.1023105 98.25535546 -41.73461914 99.40771484 C-46.73878194 102.92788454 -51.76481977 106.19976397 -57.2265625 108.98046875 C-59.01472826 109.86556673 -59.01472826 109.86556673 -59.8359375 111.953125 C-35.7459375 111.953125 -11.6559375 111.953125 13.1640625 111.953125 C13.1640625 119.543125 13.1640625 127.133125 13.1640625 134.953125 C-21.8159375 134.953125 -56.7959375 134.953125 -92.8359375 134.953125 C-92.8359375 126.703125 -92.8359375 118.453125 -92.8359375 109.953125 C-82.8359375 102.953125 -82.8359375 102.953125 -80.8359375 102.953125 C-80.8359375 102.293125 -80.8359375 101.633125 -80.8359375 100.953125 C-79.09653003 99.51258479 -77.29122556 98.15128035 -75.4609375 96.828125 C-74.36083718 96.02630405 -73.26189845 95.22288724 -72.1640625 94.41796875 C-71.3297168 93.80671143 -71.3297168 93.80671143 -70.47851562 93.18310547 C-67.16061635 90.6986262 -63.98551239 88.03359736 -60.796875 85.38671875 C-58.8359375 83.953125 -58.8359375 83.953125 -56.8359375 83.953125 C-56.1759375 82.633125 -55.5159375 81.313125 -54.8359375 79.953125 C-54.1759375 79.953125 -53.5159375 79.953125 -52.8359375 79.953125 C-52.8359375 79.293125 -52.8359375 78.633125 -52.8359375 77.953125 C-50.97265625 76.26171875 -50.97265625 76.26171875 -48.5234375 74.390625 C-47.32267578 73.46056641 -47.32267578 73.46056641 -46.09765625 72.51171875 C-43.8359375 70.953125 -43.8359375 70.953125 -40.8359375 69.953125 C-40.14141288 68.63408832 -39.47816635 67.29839982 -38.8359375 65.953125 C-37.1796875 64.13671875 -37.1796875 64.13671875 -35.3359375 62.390625 C-33.11497017 60.27788277 -31.55851333 58.53698874 -29.8359375 55.953125 C-29.1759375 55.953125 -28.5159375 55.953125 -27.8359375 55.953125 C-27.15354396 53.95843618 -26.49223266 51.95655234 -25.8359375 49.953125 C-25.57167969 49.21449219 -25.30742187 48.47585937 -25.03515625 47.71484375 C-22.55047917 40.33146684 -21.47916735 33.18305548 -23.8984375 25.640625 C-28.79500052 18.84861823 -34.86162746 15.31971271 -42.8359375 12.953125 C-46.40190676 12.47428815 -49.86884037 12.47520969 -53.4609375 12.578125 C-54.89228027 12.59854858 -54.89228027 12.59854858 -56.35253906 12.61938477 C-64.62458201 12.80171357 -72.6586771 13.74133641 -80.8359375 14.953125 C-84.16695601 15.32278681 -87.49900743 15.64028781 -90.8359375 15.953125 C-90.8359375 9.683125 -90.8359375 3.413125 -90.8359375 -3.046875 C-89.4746875 -3.315 -88.1134375 -3.583125 -86.7109375 -3.859375 C-82.48863226 -4.69788914 -78.28798359 -5.61256001 -74.0859375 -6.546875 C-50.79329741 -11.46504231 -20.54724014 -15.00274677 0 0 Z " fill="#FDFCFB" transform="translate(464.8359375,16.046875)"/>
<path d="M0 0 C7.71202633 6.7745839 11.28707226 16.35100114 13.41015625 26.1171875 C13.41015625 33.3771875 13.41015625 40.6371875 13.41015625 48.1171875 C-10.34984375 48.1171875 -34.10984375 48.1171875 -58.58984375 48.1171875 C-56.51655884 60.25259905 -56.51655884 60.25259905 -50.33984375 70.5546875 C-44.41846421 73.91910769 -38.04326095 76.25087402 -31.18847656 76.23071289 C-30.32788635 76.23063736 -29.46729614 76.23056183 -28.58062744 76.23048401 C-27.66070007 76.22532272 -26.74077271 76.22016144 -25.79296875 76.21484375 C-24.84419861 76.2134288 -23.89542847 76.21201385 -22.91790771 76.21055603 C-19.89185413 76.20496492 -16.86587492 76.19241402 -13.83984375 76.1796875 C-11.7864594 76.17467135 -9.73307389 76.17010865 -7.6796875 76.16601562 C-2.64971099 76.15499839 2.38021003 76.13773983 7.41015625 76.1171875 C7.41015625 81.0671875 7.41015625 86.0171875 7.41015625 91.1171875 C-6.80382435 94.67068265 -20.22796496 96.2894151 -34.83984375 96.3671875 C-35.91645264 96.37645264 -36.99306152 96.38571777 -38.10229492 96.39526367 C-53.85757348 96.33378083 -66.98427004 93.3029398 -78.69140625 82.1875 C-81.53645789 79.08487167 -83.6350635 75.83199129 -85.58984375 72.1171875 C-85.97011719 71.42238281 -86.35039062 70.72757812 -86.7421875 70.01171875 C-93.48651805 57.21909176 -92.63946882 37.68995639 -88.90234375 23.9921875 C-86.61900058 17.49969214 -83.39060708 11.81833249 -79.58984375 6.1171875 C-78.92984375 6.1171875 -78.26984375 6.1171875 -77.58984375 6.1171875 C-77.25984375 5.1271875 -76.92984375 4.1371875 -76.58984375 3.1171875 C-74.63926151 1.51965182 -72.73184778 0.08884627 -70.65234375 -1.3203125 C-70.06622314 -1.71992187 -69.48010254 -2.11953125 -68.8762207 -2.53125 C-48.65242032 -15.96057996 -19.36745106 -14.08010771 0 0 Z " fill="#FAF9FB" transform="translate(221.58984375,55.8828125)"/>
<path d="M0 0 C42.9 0 85.8 0 130 0 C130.33 1.32 130.66 2.64 131 4 C132.62010986 4.029729 132.62010986 4.029729 134.27294922 4.06005859 C138.27253913 4.13601623 142.27176052 4.22474816 146.27099609 4.31738281 C148.00334407 4.35571341 149.73577274 4.39055906 151.46826172 4.421875 C153.95569749 4.46743765 156.44257566 4.52544503 158.9296875 4.5859375 C159.70682098 4.59748871 160.48395447 4.60903992 161.28463745 4.62094116 C166.77225659 4.77225659 166.77225659 4.77225659 169 7 C169.21227142 9.65789234 169.30094837 12.21429686 169.30297852 14.87451172 C169.31141785 15.68767853 169.31985718 16.50084534 169.32855225 17.33865356 C169.35441123 20.03567059 169.36649089 22.73257796 169.37890625 25.4296875 C169.39507515 27.30055617 169.41225449 29.17141635 169.43040466 31.04226685 C169.47617428 35.97593258 169.51093109 40.90960959 169.54260254 45.84338379 C169.59439144 53.73404197 169.65965859 61.6245748 169.73081779 69.5150795 C169.75364981 72.27370359 169.76992473 75.0323119 169.78553772 77.79098511 C169.79894743 79.48289154 169.8125625 81.17479636 169.82641602 82.86669922 C169.83033607 84.01860748 169.83033607 84.01860748 169.83433533 85.19378662 C169.86841806 88.69863562 170.14280725 91.57122901 171 95 C173.97 95 176.94 95 180 95 C180 95.33 180 95.66 180 96 C175.71 96 171.42 96 167 96 C167 66.96 167 37.92 167 8 C154.46 8 141.92 8 129 8 C128.34 9.65 127.68 11.3 127 13 C124.4306601 17.25270052 121.54973279 20.54368123 118 24 C117.01 25.485 117.01 25.485 116 27 C115.34 27 114.68 27 114 27 C113.5978125 28.1446875 113.5978125 28.1446875 113.1875 29.3125 C112.03396359 31.92313504 111.01370135 33.07385089 109 35 C108.67 35.99 108.34 36.98 108 38 C107.34 38 106.68 38 106 38 C105.75507812 38.54398438 105.51015625 39.08796875 105.2578125 39.6484375 C103.71412937 42.53445379 101.85108673 45.01546386 99.875 47.625 C99.47974121 48.14843994 99.08448242 48.67187988 98.67724609 49.21118164 C95.45055032 53.46303226 92.1168234 57.62336908 88.7265625 61.74609375 C86.94080971 63.97926631 86.94080971 63.97926631 85.5234375 66.53515625 C83.92216797 69.12592824 82.15121547 70.84878453 80 73 C77.89065369 75.65821427 75.88498901 78.39121932 73.875 81.125 C72.81133946 82.56617076 71.74629591 84.00632209 70.6796875 85.4453125 C70.21288574 86.07969238 69.74608398 86.71407227 69.26513672 87.36767578 C68 89 68 89 66 91 C65.67 100.24 65.34 109.48 65 119 C88.1 119 111.2 119 135 119 C135 129.56 135 140.12 135 151 C145.56 151 156.12 151 167 151 C167 140.44 167 129.88 167 119 C171.95 119 176.9 119 182 119 C182 119.33 182 119.66 182 120 C177.71 120 173.42 120 169 120 C169.00523682 120.96413818 169.01047363 121.92827637 169.01586914 122.92163086 C169.03392118 126.48672564 169.04543274 130.05181636 169.05493164 133.61694336 C169.0599714 135.16219766 169.0668032 136.70744716 169.07543945 138.25268555 C169.08752076 140.46925029 169.09323173 142.68575218 169.09765625 144.90234375 C169.10539818 145.94454323 169.10539818 145.94454323 169.11329651 147.00779724 C169.11349277 148.6722933 169.06189129 150.33665499 169 152 C167.06402015 153.93597985 163.42954211 153.16381416 160.7890625 153.16796875 C160.06512299 153.17129715 159.34118347 153.17462555 158.5953064 153.17805481 C157.06028887 153.18312739 155.52526028 153.18546303 153.99023438 153.18530273 C151.64174151 153.18748445 149.29372185 153.20562287 146.9453125 153.22460938 C145.45573078 153.22754419 143.96614682 153.2295284 142.4765625 153.23046875 C141.77334869 153.23765427 141.07013489 153.24483978 140.34561157 153.25224304 C136.66705311 153.23502296 135.14791026 153.09860684 132 151 C132.33 141.1 132.66 131.2 133 121 C110.56 121 88.12 121 65 121 C65 122.32 65 123.64 65 125 C66.485 125.495 66.485 125.495 68 126 C68 134.25 68 142.5 68 151 C67.34 151 66.68 151 66 151 C66 143.41 66 135.82 66 128 C41.91 128 17.82 128 -7 128 C-6 125 -6 125 -3.91796875 123.7109375 C-3.01691406 123.27007812 -2.11585938 122.82921875 -1.1875 122.375 C5.4269042 118.92587635 11.11891434 114.5574225 17 110 C23.64351852 105 23.64351852 105 26 105 C26 104.34 26 103.68 26 103 C27.51171875 101.9140625 27.51171875 101.9140625 29.6875 100.625 C34.17885438 97.74280921 38.03640546 94.42830764 41.9375 90.8125 C42.5049292 90.28930176 43.0723584 89.76610352 43.65698242 89.22705078 C46.10850075 86.92734412 48.12763858 84.80854213 50 82 C50.66 82 51.32 82 52 82 C52.26941406 81.43796875 52.53882813 80.8759375 52.81640625 80.296875 C54.07238047 77.8595389 55.48314559 75.57400653 56.9375 73.25 C64.42904115 60.86154902 65.29174108 48.21734475 64 34 C62.9282687 30.05994219 61.47621823 27.21908371 59 24 C58.278125 22.9275 57.55625 21.855 56.8125 20.75 C44.32552438 8.54051273 25.61845814 6.29043387 8.81982422 6.46777344 C-1.388382 6.81521365 -11.33823871 8.60679036 -21.35205078 10.51269531 C-26.87287903 11.52869874 -32.43696683 12.25565049 -38 13 C-36.68502831 10.37005663 -35.72800782 10.07684519 -33 9 C-30.66993089 8.64456573 -28.33672984 8.3086247 -26 8 C-25.67 7.67 -25.34 7.34 -25 7 C-23.67178382 6.8132196 -22.33645776 6.67619172 -21 6.5625 C-13.50373035 5.80218105 -6.28750514 3.85500131 1 2 C0.505 1.01 0.505 1.01 0 0 Z " fill="#D8251C" transform="translate(412,0)"/>
<path d="M0 0 C0 10.56 0 21.12 0 32 C10.89 32 21.78 32 33 32 C33 37.61 33 43.22 33 49 C22.11 49 11.22 49 0 49 C0.06770186 56.30479691 0.13820891 63.60863084 0.2355423 70.91294098 C0.28007651 74.31490299 0.31953701 77.71674544 0.34643555 81.11889648 C0.37758682 85.02873986 0.43237176 88.93808551 0.48828125 92.84765625 C0.49467117 94.05833267 0.5010611 95.26900909 0.50764465 96.51637268 C0.67101837 106.66781523 0.67101837 106.66781523 6 115 C9.11346928 116.05498775 12.15250593 116.18926412 15.421875 116.31640625 C16.44667969 116.35830078 17.47148437 116.40019531 18.52734375 116.44335938 C19.59082031 116.48267578 20.65429688 116.52199219 21.75 116.5625 C22.82894531 116.60568359 23.90789062 116.64886719 25.01953125 116.69335938 C27.67954211 116.79928901 30.33975456 116.90013456 33 117 C33 121.95 33 126.9 33 132 C21.94413836 136.19360269 10.9148969 137.177406 -0.8125 137.3125 C-1.68358398 137.33014404 -2.55466797 137.34778809 -3.45214844 137.3659668 C-9.30800867 137.35984142 -14.68818049 136.61377656 -20 134 C-20.495 133.01 -20.495 133.01 -21 132 C-21.77806 131.54974457 -22.55612 131.09948914 -23.35775757 130.6355896 C-27.94810752 127.79409082 -30.08821447 123.98266216 -32 119 C-32.78196494 113.55358232 -32.70302601 108.19290946 -32.5859375 102.7109375 C-32.57472431 101.15582936 -32.56619418 99.6006998 -32.56021118 98.04556274 C-32.53747886 93.98443405 -32.47869594 89.92462624 -32.4119873 85.86401367 C-32.35022356 81.70770122 -32.32312404 77.55117193 -32.29296875 73.39453125 C-32.22893211 65.2623519 -32.12354041 57.13149325 -32 49 C-36.95 49 -41.9 49 -47 49 C-47 43.39 -47 37.78 -47 32 C-42.05 32 -37.1 32 -32 32 C-32 24.74 -32 17.48 -32 10 C-20.87892377 5.55156951 -20.87892377 5.55156951 -15.75 4.4375 C-10.228966 3.14925873 -5.60910034 0 0 0 Z " fill="#FBFAFC" transform="translate(280,15)"/>
<path d="M0 0 C1.19399414 0.00483398 1.19399414 0.00483398 2.41210938 0.00976562 C3.22873047 0.01814453 4.04535156 0.02652344 4.88671875 0.03515625 C5.72267578 0.03966797 6.55863281 0.04417969 7.41992188 0.04882812 C9.47138524 0.06055077 11.52281148 0.07848422 13.57421875 0.09765625 C13.57421875 0.75765625 13.57421875 1.41765625 13.57421875 2.09765625 C14.59515625 2.22140625 14.59515625 2.22140625 15.63671875 2.34765625 C22.54542069 4.11158015 27.80776237 8.07998456 31.57421875 14.09765625 C34.47326116 20.3972342 35.03859939 25.64788154 34.94921875 32.53515625 C34.96082031 33.42525391 34.97242188 34.31535156 34.984375 35.23242188 C34.95753257 41.35696872 33.85940889 46.42111901 31.57421875 52.09765625 C30.91421875 52.09765625 30.25421875 52.09765625 29.57421875 52.09765625 C29.47238281 52.68546875 29.37054688 53.27328125 29.265625 53.87890625 C27.81271847 58.54134077 23.5352038 61.85952958 19.5078125 64.40234375 C9.90510883 69.3950208 2.15423381 68.09765625 -9.42578125 68.09765625 C-9.42578125 45.98765625 -9.42578125 23.87765625 -9.42578125 1.09765625 C-5.92999552 0.3984991 -3.43171332 -0.02468859 0 0 Z " fill="#2B196E" transform="translate(58.42578125,65.90234375)"/>
<path d="M0 0 C0.66 0 1.32 0 2 0 C2 20.46 2 40.92 2 62 C-12.52 62 -27.04 62 -42 62 C-42 57.20810725 -40.91937846 56.10049001 -38.0625 52.375 C-35.2911533 48.83722759 -35.2911533 48.83722759 -33 45 C-32.34 45 -31.68 45 -31 45 C-30.7628125 44.48308594 -30.525625 43.96617188 -30.28125 43.43359375 C-28.56309017 40.17013773 -26.54493788 37.12658394 -24.5 34.0625 C-23.83786499 33.06887451 -23.83786499 33.06887451 -23.16235352 32.05517578 C-19.85794855 27.15216753 -16.35857884 22.4462187 -12.69921875 17.80419922 C-8.80441698 12.8386351 -5.29769003 7.64562156 -1.8125 2.38671875 C-1.214375 1.59910156 -0.61625 0.81148437 0 0 Z " fill="#D8251D" transform="translate(546,35)"/>
<path d="M0 0 C4.17619631 1.9310983 6.98370699 4.32236868 9.453125 8.2734375 C10.453125 12.2734375 10.453125 12.2734375 10.453125 26.2734375 C-2.746875 26.2734375 -15.946875 26.2734375 -29.546875 26.2734375 C-29.546875 11.55915179 -29.546875 11.55915179 -26.546875 7.2734375 C-25.94875 6.3865625 -25.350625 5.4996875 -24.734375 4.5859375 C-18.3586669 -2.15409677 -8.56016467 -2.44201017 0 0 Z " fill="#2C1B6C" transform="translate(192.546875,61.7265625)"/>
<path d="M0 0 C1.21627579 -0.00074776 1.21627579 -0.00074776 2.4571228 -0.00151062 C4.16675271 0.00082531 5.87638634 0.01052546 7.5859375 0.02709961 C10.20864408 0.05076056 12.83033833 0.04764875 15.453125 0.04101562 C17.11458942 0.04659034 18.77604954 0.05369891 20.4375 0.0625 C21.22395905 0.06158859 22.01041809 0.06067719 22.82070923 0.05973816 C28.354885 0.13222875 28.354885 0.13222875 30.5859375 2.36328125 C30.79820892 5.02117359 30.88688587 7.57757811 30.88891602 10.23779297 C30.89735535 11.05095978 30.90579468 11.86412659 30.91448975 12.70193481 C30.94034873 15.39895184 30.95242839 18.09585921 30.96484375 20.79296875 C30.98101265 22.66383742 30.99819199 24.5346976 31.01634216 26.4055481 C31.06211178 31.33921383 31.09686859 36.27289084 31.12854004 41.20666504 C31.18032894 49.09732322 31.24559609 56.98785605 31.31675529 64.87836075 C31.33958731 67.63698484 31.35586223 70.39559315 31.37147522 73.15426636 C31.38488493 74.84617279 31.3985 76.53807761 31.41235352 78.22998047 C31.41496689 78.99791931 31.41758026 79.76585815 31.42027283 80.55706787 C31.45435556 84.06191687 31.72874475 86.93451026 32.5859375 90.36328125 C35.5559375 90.36328125 38.5259375 90.36328125 41.5859375 90.36328125 C41.5859375 90.69328125 41.5859375 91.02328125 41.5859375 91.36328125 C37.2959375 91.36328125 33.0059375 91.36328125 28.5859375 91.36328125 C28.5859375 62.32328125 28.5859375 33.28328125 28.5859375 3.36328125 C16.0459375 3.36328125 3.5059375 3.36328125 -9.4140625 3.36328125 C-10.0740625 5.01328125 -10.7340625 6.66328125 -11.4140625 8.36328125 C-13.9834024 12.61598177 -16.86432971 15.90696248 -20.4140625 19.36328125 C-21.0740625 20.35328125 -21.7340625 21.34328125 -22.4140625 22.36328125 C-23.0740625 22.36328125 -23.7340625 22.36328125 -24.4140625 22.36328125 C-24.6821875 23.12640625 -24.9503125 23.88953125 -25.2265625 24.67578125 C-26.38009891 27.28641629 -27.40036115 28.43713214 -29.4140625 30.36328125 C-29.7440625 31.35328125 -30.0740625 32.34328125 -30.4140625 33.36328125 C-31.0740625 33.36328125 -31.7340625 33.36328125 -32.4140625 33.36328125 C-32.6615625 33.94078125 -32.9090625 34.51828125 -33.1640625 35.11328125 C-34.58089567 37.66358095 -36.29033787 39.38113826 -38.4140625 41.36328125 C-38.4140625 40.04328125 -38.4140625 38.72328125 -38.4140625 37.36328125 C-37.7540625 37.36328125 -37.0940625 37.36328125 -36.4140625 37.36328125 C-36.4140625 36.70328125 -36.4140625 36.04328125 -36.4140625 35.36328125 C-35.7540625 35.36328125 -35.0940625 35.36328125 -34.4140625 35.36328125 C-34.3109375 34.62078125 -34.2078125 33.87828125 -34.1015625 33.11328125 C-33.35975503 30.14605138 -32.52725696 28.55775242 -30.4140625 26.36328125 C-29.4240625 26.36328125 -28.4340625 26.36328125 -27.4140625 26.36328125 C-27.0840625 24.71328125 -26.7540625 23.06328125 -26.4140625 21.36328125 C-25.7540625 21.36328125 -25.0940625 21.36328125 -24.4140625 21.36328125 C-24.0840625 20.04328125 -23.7540625 18.72328125 -23.4140625 17.36328125 C-22.4240625 17.36328125 -21.4340625 17.36328125 -20.4140625 17.36328125 C-20.3315625 16.57953125 -20.2490625 15.79578125 -20.1640625 14.98828125 C-19.4140625 12.36328125 -19.4140625 12.36328125 -17.3515625 11.05078125 C-16.3925 10.71046875 -16.3925 10.71046875 -15.4140625 10.36328125 C-15.4140625 9.37328125 -15.4140625 8.38328125 -15.4140625 7.36328125 C-14.4240625 7.36328125 -13.4340625 7.36328125 -12.4140625 7.36328125 C-12.4140625 6.04328125 -12.4140625 4.72328125 -12.4140625 3.36328125 C-9.08699089 -0.53520031 -4.74493479 -0.05585258 0 0 Z " fill="#BE443E" transform="translate(550.4140625,4.63671875)"/>
<path d="M0 0 C0.66 0.33 1.32 0.66 2 1 C0.68 2.32 -0.64 3.64 -2 5 C-2 11.93 -2 18.86 -2 26 C31 26 64 26 98 26 C98.33 19.73 98.66 13.46 99 7 C76.56 7 54.12 7 31 7 C31 6.67 31 6.34 31 6 C54.1 6 77.2 6 101 6 C101 13.59 101 21.18 101 29 C66.02 29 31.04 29 -5 29 C-5 20.75 -5 12.5 -5 4 C-3.35 2.68 -1.7 1.36 0 0 Z " fill="#FCD3D0" transform="translate(377,122)"/>
<path d="M0 0 C0.66 0 1.32 0 2 0 C2 20.46 2 40.92 2 62 C-12.52 62 -27.04 62 -42 62 C-42 57.20810725 -40.91937846 56.10049001 -38.0625 52.375 C-35.2911533 48.83722759 -35.2911533 48.83722759 -33 45 C-32.34 45 -31.68 45 -31 45 C-30.7628125 44.48308594 -30.525625 43.96617188 -30.28125 43.43359375 C-28.56309017 40.17013773 -26.54493788 37.12658394 -24.5 34.0625 C-23.83786499 33.06887451 -23.83786499 33.06887451 -23.16235352 32.05517578 C-19.85794855 27.15216753 -16.35857884 22.4462187 -12.69921875 17.80419922 C-8.80441698 12.8386351 -5.29769003 7.64562156 -1.8125 2.38671875 C-1.214375 1.59910156 -0.61625 0.81148437 0 0 Z M-2 5 C-2.556875 6.175625 -3.11375 7.35125 -3.6875 8.5625 C-5.16262501 11.53918595 -6.77611642 14.20379002 -8.75 16.875 C-11.19476824 19.62872304 -11.19476824 19.62872304 -11 22 C-11.99 22.33 -12.98 22.66 -14 23 C-18.94855791 29.43318353 -18.94855791 29.43318353 -21 37 C-22.65 37.66 -24.3 38.32 -26 39 C-26 39.99 -26 40.98 -26 42 C-26.66 42 -27.32 42 -28 42 C-28.45375 42.969375 -28.9075 43.93875 -29.375 44.9375 C-31 48 -31 48 -33 49 C-33.45375 49.763125 -33.9075 50.52625 -34.375 51.3125 C-35.99035911 53.98405546 -37.80716639 55.80716639 -40 58 C-40 58.66 -40 59.32 -40 60 C-26.8 60 -13.6 60 0 60 C0 41.85 0 23.7 0 5 C-0.66 5 -1.32 5 -2 5 Z " fill="#D77976" transform="translate(546,35)"/>
<path d="M0 0 C23.1 0 46.2 0 70 0 C70 10.56 70 21.12 70 32 C80.56 32 91.12 32 102 32 C102 21.44 102 10.88 102 0 C106.95 0 111.9 0 117 0 C117 0.33 117 0.66 117 1 C112.71 1 108.42 1 104 1 C104.00523682 1.96413818 104.01047363 2.92827637 104.01586914 3.92163086 C104.03392118 7.48672564 104.04543274 11.05181636 104.05493164 14.61694336 C104.0599714 16.16219766 104.0668032 17.70744716 104.07543945 19.25268555 C104.08752076 21.46925029 104.09323173 23.68575218 104.09765625 25.90234375 C104.10281754 26.5971434 104.10797882 27.29194305 104.11329651 28.00779724 C104.11349277 29.6722933 104.06189129 31.33665499 104 33 C102.06402015 34.93597985 98.42954211 34.16381416 95.7890625 34.16796875 C95.06512299 34.17129715 94.34118347 34.17462555 93.5953064 34.17805481 C92.06028887 34.18312739 90.52526028 34.18546303 88.99023438 34.18530273 C86.64174151 34.18748445 84.29372185 34.20562287 81.9453125 34.22460938 C80.45573078 34.22754419 78.96614682 34.2295284 77.4765625 34.23046875 C76.77334869 34.23765427 76.07013489 34.24483978 75.34561157 34.25224304 C71.66705311 34.23502296 70.14791026 34.09860684 67 32 C67.33 22.1 67.66 12.2 68 2 C45.56 2 23.12 2 0 2 C0 1.34 0 0.68 0 0 Z " fill="#BC332D" transform="translate(477,119)"/>
<path d="M0 0 C0.9583374 -0.00926514 1.9166748 -0.01853027 2.90405273 -0.02807617 C9.23469622 -0.00022636 15.09470981 0.77742649 21.25 2.25 C21.25 2.58 21.25 2.91 21.25 3.25 C20.50766113 3.23428955 19.76532227 3.2185791 19.00048828 3.20239258 C1.35231822 2.88129506 -16.33136697 2.92928645 -33.75 6.25 C-34.08 6.58 -34.41 6.91 -34.75 7.25 C-39.07490853 7.7152292 -43.40935537 7.95500473 -47.75 8.25 C-48.08 13.53 -48.41 18.81 -48.75 24.25 C-47.1 24.25 -45.45 24.25 -43.75 24.25 C-43.75 23.59 -43.75 22.93 -43.75 22.25 C-35.02732076 20.44781069 -26.48748471 19.87732958 -17.61230469 19.87939453 C-15.48814256 19.87497533 -13.36599093 19.83837501 -11.2421875 19.80078125 C-3.7479464 19.74101123 1.87447069 20.07122043 8.25 24.25 C8.25 24.91 8.25 25.57 8.25 26.25 C7.3520874 25.93059448 7.3520874 25.93059448 6.43603516 25.60473633 C0.01894979 23.47958153 -5.64065509 22.80706865 -12.375 22.9375 C-13.32922852 22.946604 -14.28345703 22.95570801 -15.26660156 22.96508789 C-23.54931826 23.108779 -31.56315235 24.03679068 -39.75 25.25 C-43.08101851 25.61966181 -46.41306993 25.93716281 -49.75 26.25 C-49.75 19.98 -49.75 13.71 -49.75 7.25 C-48.38875 6.981875 -47.0275 6.71375 -45.625 6.4375 C-41.40269476 5.59898586 -37.20204609 4.68431499 -33 3.75 C-21.87604117 1.40121127 -11.3598976 0.06801248 0 0 Z " fill="#FAD4D0" transform="translate(423.75,5.75)"/>
<path d="M0 0 C0.99 0 1.98 0 3 0 C3 10.56 3 21.12 3 32 C13.89 32 24.78 32 36 32 C36 38.6 36 45.2 36 52 C32.76896484 52.09087891 32.76896484 52.09087891 29.47265625 52.18359375 C27.3942499 52.24534241 25.31590025 52.30874691 23.23754883 52.37231445 C21.7893576 52.4157163 20.34111346 52.45738744 18.89282227 52.49731445 C16.81510441 52.55489062 14.73765427 52.61862028 12.66015625 52.68359375 C10.78275757 52.73858032 10.78275757 52.73858032 8.86743164 52.79467773 C6.10369496 52.67803906 6.10369496 52.67803906 5 54 C4.87677242 55.77903357 4.82210981 57.56286203 4.79467773 59.34594727 C4.77473251 60.4870546 4.75478729 61.62816193 4.73423767 62.80384827 C4.71752518 64.0454924 4.70081268 65.28713654 4.68359375 66.56640625 C4.66281265 67.83016586 4.64203156 69.09392548 4.62062073 70.39598083 C4.56616286 73.76118633 4.5159572 77.12640173 4.46777344 80.49169922 C4.41760241 83.92355901 4.36189345 87.35532831 4.30664062 90.78710938 C4.19929809 97.52466761 4.09755675 104.26229336 4 111 C2.00456219 107.67107873 1.75589759 105.16714405 1.77294922 101.31347656 C1.77310028 100.17259583 1.77325134 99.03171509 1.77340698 97.85626221 C1.78372955 96.63010193 1.79405212 95.40394165 1.8046875 94.140625 C1.8075174 92.88111023 1.81034729 91.62159546 1.81326294 90.32391357 C1.82255879 86.98326098 1.84051417 83.64288331 1.8626709 80.30230713 C1.88316792 76.89036472 1.89238262 73.47839301 1.90234375 70.06640625 C1.92269967 63.37744964 1.96184996 56.68897361 2 50 C12.89 50 23.78 50 35 50 C35 44.39 35 38.78 35 33 C24.11 33 13.22 33 2 33 C2 22.44 2 11.88 2 1 C1.34 0.67 0.68 0.34 0 0 Z " fill="#5F5488" transform="translate(278,14)"/>
<path d="M0 0 C0 0.66 0 1.32 0 2 C3.63 2.99 7.26 3.98 11 5 C11 5.99 11 6.98 11 8 C12.32 8.33 13.64 8.66 15 9 C13.22827148 9.64135742 13.22827148 9.64135742 11 10 C9.19555664 9.1027832 9.19555664 9.1027832 7.34765625 7.73828125 C-12.3126372 -5.37311629 -40.71860102 -0.60474754 -62.35205078 3.51269531 C-67.87287903 4.52869874 -73.43696683 5.25565049 -79 6 C-77.68502831 3.37005663 -76.72800782 3.07684519 -74 2 C-71.66993089 1.64456573 -69.33672984 1.3086247 -67 1 C-66.67 0.67 -66.34 0.34 -66 0 C-64.67178382 -0.1867804 -63.33645776 -0.32380828 -62 -0.4375 C-58.79465102 -0.7560126 -55.75374874 -1.23757928 -52.625 -2 C-35.53884885 -5.94069579 -16.69091761 -5.04535342 0 0 Z " fill="#C42F28" transform="translate(453,7)"/>
<path d="M0 0 C0.99 0.33 1.98 0.66 3 1 C-10.55485893 13.18495298 -10.55485893 13.18495298 -16 15 C-16 15.66 -16 16.32 -16 17 C-16.78246094 17.27972656 -17.56492187 17.55945313 -18.37109375 17.84765625 C-22.17886094 19.15416301 -22.17886094 19.15416301 -27 24 C-27.33 32.25 -27.66 40.5 -28 49 C6.98 49 41.96 49 78 49 C78 49.33 78 49.66 78 50 C64.06620728 50.02333048 50.13241757 50.04091349 36.19860935 50.05181217 C29.7293232 50.05704168 23.26005011 50.06414056 16.79077148 50.07543945 C10.553297 50.08626592 4.31583513 50.09227632 -1.92164803 50.09487724 C-4.30720277 50.09673193 -6.69275679 50.10035336 -9.0783062 50.10573006 C-12.40695591 50.11293729 -15.73555279 50.11399108 -19.06420898 50.11352539 C-20.5596096 50.1189183 -20.5596096 50.1189183 -22.08522034 50.12442017 C-23.43775406 50.12235817 -23.43775406 50.12235817 -24.81761169 50.12025452 C-25.6057447 50.12117631 -26.3938777 50.1220981 -27.20589352 50.12304783 C-29 50 -29 50 -30 49 C-30.08758003 47.00035018 -30.10696576 44.9976389 -30.09765625 42.99609375 C-30.09443359 41.78115234 -30.09121094 40.56621094 -30.08789062 39.31445312 C-30.07951172 38.03505859 -30.07113281 36.75566406 -30.0625 35.4375 C-30.05798828 34.15423828 -30.05347656 32.87097656 -30.04882812 31.54882812 C-30.03699545 28.36583978 -30.02051068 25.18294238 -30 22 C-29.34 22 -28.68 22 -28 22 C-28 21.34 -28 20.68 -28 20 C-27.01 20 -26.02 20 -25 20 C-25 19.34 -25 18.68 -25 18 C-23.68 18 -22.36 18 -21 18 C-21 17.34 -21 16.68 -21 16 C-19.68 16 -18.36 16 -17 16 C-16.67 14.68 -16.34 13.36 -16 12 C-15.01 12 -14.02 12 -13 12 C-13 11.01 -13 10.02 -13 9 C-11.68 9 -10.36 9 -9 9 C-9 8.01 -9 7.02 -9 6 C-7.02 5.67 -5.04 5.34 -3 5 C-3 4.01 -3 3.02 -3 2 C-2.01 2 -1.02 2 0 2 C0 1.34 0 0.68 0 0 Z " fill="#B54741" transform="translate(400,102)"/>
<path d="M0 0 C0.33 0.66 0.66 1.32 1 2 C0.34 2 -0.32 2 -1 2 C-1 2.66 -1 3.32 -1 4 C21.77 4 44.54 4 68 4 C68 12.25 68 20.5 68 29 C67.34 29 66.68 29 66 29 C66 21.41 66 13.82 66 6 C41.91 6 17.82 6 -7 6 C-6 3 -6 3 -2.9375 1.3125 C-1.968125 0.879375 -0.99875 0.44625 0 0 Z " fill="#C2453E" transform="translate(412,122)"/>
<path d="M0 0 C0.33 0 0.66 0 1 0 C1.06058594 0.68707031 1.12117188 1.37414062 1.18359375 2.08203125 C1.26738281 2.98308594 1.35117188 3.88414063 1.4375 4.8125 C1.51871094 5.70582031 1.59992188 6.59914063 1.68359375 7.51953125 C1.93489767 10.12743559 1.93489767 10.12743559 3 13 C3.28455916 15.7635072 3.17817991 18.19366639 3 21 C-0.64336451 23.42890968 -2.42308306 23.27206194 -6.76635742 23.31884766 C-7.79113945 23.33391609 -7.79113945 23.33391609 -8.83662415 23.34928894 C-11.09289719 23.38015886 -13.34905137 23.39716632 -15.60546875 23.4140625 C-17.17060878 23.43277112 -18.73573869 23.45234431 -20.30085754 23.4727478 C-24.41895588 23.52410748 -28.53708694 23.56371256 -32.65533447 23.60089111 C-36.85819619 23.64090679 -41.06092137 23.69201022 -45.26367188 23.7421875 C-53.50902136 23.83899217 -61.75443834 23.92338231 -70 24 C-70 25.32 -70 26.64 -70 28 C-69.34 28 -68.68 28 -68 28 C-68.33 29.65 -68.66 31.3 -69 33 C-69.66 33 -70.32 33 -71 33 C-72 30 -72 30 -72 21 C-48.24 21 -24.48 21 0 21 C0 14.07 0 7.14 0 0 Z " fill="#261562" transform="translate(236,84)"/>
<path d="M0 0 C0.33 0 0.66 0 1 0 C1 6.27 1 12.54 1 19 C3.0625 18.525625 5.125 18.05125 7.25 17.5625 C13.84611162 16.13227515 20.25509149 15.25659978 27 15 C27.81597656 14.96213379 28.63195312 14.92426758 29.47265625 14.88525391 C52.16402078 13.92902108 52.16402078 13.92902108 61 20 C63.40370293 22.22021416 65.09859525 24.30634326 67 27 C63.90127153 25.46387819 60.88229224 23.92152816 58 22 C58 21.34 58 20.68 58 20 C56.906875 20.020625 55.81375 20.04125 54.6875 20.0625 C51 20 51 20 48 19 C43.78679472 18.79240997 39.57073769 18.81420603 35.35302734 18.81469727 C33.29892957 18.81255112 31.24540604 18.79450568 29.19140625 18.77539062 C20.95149853 18.74348476 13.12997213 19.3740246 5.00292969 20.7644043 C2 21 2 21 -1 19 C-1.24869641 16.08669922 -1.32634278 13.40579705 -1.25 10.5 C-1.24484375 9.71496094 -1.2396875 8.92992187 -1.234375 8.12109375 C-1.15462412 2.30924824 -1.15462412 2.30924824 0 0 Z " fill="#C0312A" transform="translate(373,13)"/>
<path d="M0 0 C0.66 0 1.32 0 2 0 C2 27.72 2 55.44 2 84 C5.96 84.495 5.96 84.495 10 85 C10.33 85.66 10.66 86.32 11 87 C8.03 87 5.06 87 2 87 C-0.16427399 82.67145202 -0.27125718 79.60975704 -0.22705078 74.92675781 C-0.22734283 74.11662735 -0.22763489 73.30649689 -0.22793579 72.47181702 C-0.22654443 69.79881006 -0.21099238 67.12608316 -0.1953125 64.453125 C-0.19158168 62.59796297 -0.18873503 60.74279898 -0.18673706 58.88763428 C-0.17910604 54.00826565 -0.15946207 49.12901635 -0.1373291 44.24969482 C-0.11685927 39.26934422 -0.10773291 34.28897431 -0.09765625 29.30859375 C-0.07621571 19.53901011 -0.04208612 9.76951498 0 0 Z " fill="#D12B24" transform="translate(581,8)"/>
<path d="M0 0 C12.54 0 25.08 0 38 0 C38 29.04 38 58.08 38 88 C42.95 88 47.9 88 53 88 C53 95.59 53 103.18 53 111 C48.05 111 43.1 111 38 111 C38 110.67 38 110.34 38 110 C42.62 110 47.24 110 52 110 C52 103.07 52 96.14 52 89 C47.05 89 42.1 89 37 89 C37 59.96 37 30.92 37 1 C16.57166906 -0.16966969 16.57166906 -0.16966969 -2 5 C-1.34 3.35 -0.68 1.7 0 0 Z " fill="#F7B4B0" transform="translate(541,8)"/>
<path d="M0 0 C0.66 0 1.32 0 2 0 C1.52354792 4.28806873 0.34097516 6.26647487 -3 9 C-3.66 9 -4.32 9 -5 9 C-5.33 9.99 -5.66 10.98 -6 12 C-6.99 12 -7.98 12 -9 12 C-9.2475 12.78375 -9.495 13.5675 -9.75 14.375 C-11.23119438 17.4855082 -11.97294774 17.61620468 -15 19 C-17.29573747 21.18375027 -19.47946109 23.37101548 -21.5 25.8125 C-23.6446571 27.51035354 -25.34994106 27.21486964 -28 27 C-28.33 27.99 -28.66 28.98 -29 30 C-29.66 30.33 -30.32 30.66 -31 31 C-31.33 31.99 -31.66 32.98 -32 34 C-33.92578125 35.0625 -33.92578125 35.0625 -36.3125 36 C-39.57454829 37.35052955 -42.30865572 38.65970063 -45 41 C-46.32 40.34 -47.64 39.68 -49 39 C-48.29875 38.56429687 -47.5975 38.12859375 -46.875 37.6796875 C-40.27715998 33.53810858 -33.99207825 29.18176814 -27.90234375 24.328125 C-26 23 -26 23 -24 23 C-24 22.34 -24 21.68 -24 21 C-22.48828125 19.9140625 -22.48828125 19.9140625 -20.3125 18.625 C-15.82114562 15.74280921 -11.96359454 12.42830764 -8.0625 8.8125 C-7.4950708 8.28930176 -6.9276416 7.76610352 -6.34301758 7.22705078 C-3.89149925 4.92734412 -1.87236142 2.80854213 0 0 Z " fill="#C1463D" transform="translate(462,82)"/>
<path d="M0 0 C0 4.34103409 -2.60879029 6.6033966 -5.25 9.8125 C-8.00998053 13.20633432 -10.69895952 16.54342193 -13.109375 20.19921875 C-14.89617914 22.84619926 -16.75163477 24.75163477 -19 27 C-21.10860586 29.6588042 -23.11500928 32.391217 -25.125 35.125 C-26.18866054 36.56617076 -27.25370409 38.00632209 -28.3203125 39.4453125 C-28.78711426 40.07969238 -29.25391602 40.71407227 -29.73486328 41.36767578 C-31 43 -31 43 -33 45 C-33.37268887 47.91188245 -33.37268887 47.91188245 -33.4140625 51.3203125 C-33.45273437 52.57714844 -33.49140625 53.83398438 -33.53125 55.12890625 C-33.5621875 56.44761719 -33.593125 57.76632813 -33.625 59.125 C-33.66318029 60.46486918 -33.70223206 61.80471383 -33.7421875 63.14453125 C-33.8367203 66.42954619 -33.92227156 69.71455138 -34 73 C-34.66 73 -35.32 73 -36 73 C-36.05802751 68.41671978 -36.09360593 63.83353396 -36.125 59.25 C-36.14175781 57.94804688 -36.15851563 56.64609375 -36.17578125 55.3046875 C-36.18222656 54.05429688 -36.18867188 52.80390625 -36.1953125 51.515625 C-36.20578613 50.36352539 -36.21625977 49.21142578 -36.22705078 48.02441406 C-36.00758762 45.10107034 -35.52728122 43.46267491 -34 41 C-33.34 41 -32.68 41 -32 41 C-32 40.34 -32 39.68 -32 39 C-30.66666667 37.66666667 -29.33333333 36.33333333 -28 35 C-28 34.34 -28 33.68 -28 33 C-27.01 33 -26.02 33 -25 33 C-24.9175 32.46375 -24.835 31.9275 -24.75 31.375 C-23.72418729 28.12659309 -22.03436106 25.71248141 -20 23 C-19.34 23 -18.68 23 -18 23 C-17.87625 22.360625 -17.7525 21.72125 -17.625 21.0625 C-17.315625 20.0415625 -17.315625 20.0415625 -17 19 C-16.34 18.67 -15.68 18.34 -15 18 C-14.67 17.01 -14.34 16.02 -14 15 C-13.01 15 -12.02 15 -11 15 C-10.67 13.35 -10.34 11.7 -10 10 C-9.01 10 -8.02 10 -7 10 C-6.896875 9.360625 -6.79375 8.72125 -6.6875 8.0625 C-6.460625 7.381875 -6.23375 6.70125 -6 6 C-5.01 5.67 -4.02 5.34 -3 5 C-3 4.01 -3 3.02 -3 2 C-2.01 1.34 -1.02 0.68 0 0 Z " fill="#C54942" transform="translate(511,46)"/>
<path d="M0 0 C4.95 0 9.9 0 15 0 C15 0.33 15 0.66 15 1 C10.71 1 6.42 1 2 1 C2.00523682 1.96413818 2.01047363 2.92827637 2.01586914 3.92163086 C2.03392118 7.48672564 2.04543274 11.05181636 2.05493164 14.61694336 C2.0599714 16.16219766 2.0668032 17.70744716 2.07543945 19.25268555 C2.08752076 21.46925029 2.09323173 23.68575218 2.09765625 25.90234375 C2.10281754 26.5971434 2.10797882 27.29194305 2.11329651 28.00779724 C2.11349277 29.6722933 2.06189129 31.33665499 2 33 C1 34 1 34 -2.14282227 34.11352539 C-3.53402697 34.11336633 -4.92523761 34.10767506 -6.31640625 34.09765625 C-7.04746078 34.0962413 -7.77851532 34.09482635 -8.53172302 34.09336853 C-10.87535632 34.08775408 -13.21889539 34.07519922 -15.5625 34.0625 C-17.14778508 34.05748686 -18.73307166 34.05292363 -20.31835938 34.04882812 C-24.2122761 34.03777997 -28.10612205 34.02050572 -32 34 C-32 33.34 -32 32.68 -32 32 C-21.44 32 -10.88 32 0 32 C0 21.44 0 10.88 0 0 Z " fill="#BB403C" transform="translate(579,119)"/>
<path d="M0 0 C0.66 0 1.32 0 2 0 C2 18.15 2 36.3 2 55 C-11.2 55 -24.4 55 -38 55 C-37.34 53.35 -36.68 51.7 -36 50 C-35.34 50 -34.68 50 -34 50 C-34 50.99 -34 51.98 -34 53 C-22.78 53.33 -11.56 53.66 0 54 C0.33 37.17 0.66 20.34 1 3 C0.34 2.67 -0.32 2.34 -1 2 C-0.67 1.34 -0.34 0.68 0 0 Z " fill="#C52D26" transform="translate(544,40)"/>
<path d="M0 0 C0.33 1.32 0.66 2.64 1 4 C0.34 4 -0.32 4 -1 4 C-1.226875 4.721875 -1.45375 5.44375 -1.6875 6.1875 C-3 9 -3 9 -8 14 C-8.33 22.58 -8.66 31.16 -9 40 C13.77 40 36.54 40 60 40 C60 40.33 60 40.66 60 41 C36.9 41 13.8 41 -10 41 C-10 13 -10 13 -3 5 C-1.13696895 2.20856537 -1.13696895 2.20856537 0 0 Z " fill="#FCA8A4" transform="translate(487,78)"/>
<path d="M0 0 C1.13808105 -0.009104 2.27616211 -0.01820801 3.44873047 -0.02758789 C9.18700305 -0.00659526 14.08914756 0.29089825 19.5 2.25 C16.11097718 3.37967427 13.95228571 2.95701029 10.5 2.25 C-4.58997451 1.08775295 -19.06331444 2.94799042 -33.85205078 5.76269531 C-39.37287903 6.77869874 -44.93696683 7.50565049 -50.5 8.25 C-49.18502831 5.62005663 -48.22800782 5.32684519 -45.5 4.25 C-43.16993089 3.89456573 -40.83672984 3.5586247 -38.5 3.25 C-38.17 2.92 -37.84 2.59 -37.5 2.25 C-25.20097378 0.21576313 -12.43247015 0.0484647 0 0 Z " fill="#BC4640" transform="translate(424.5,4.75)"/>
<path d="M0 0 C6.53836186 9.80754278 4 20.21038794 4 32 C-19.76 32 -43.52 32 -68 32 C-68 31.67 -68 31.34 -68 31 C-32.855 30.505 -32.855 30.505 3 30 C2.20715985 18.52324407 2.20715985 18.52324407 0.9375 7.125 C0.80118164 6.07505859 0.80118164 6.07505859 0.66210938 5.00390625 C0.44498385 3.33546802 0.22307567 1.6676531 0 0 Z " fill="#DED6F3" transform="translate(231,72)"/>
<path d="M0 0 C2.12416213 -0.0044192 4.24631376 -0.04101952 6.37011719 -0.07861328 C13.86435828 -0.1383833 19.48677538 0.19182589 25.86230469 4.37060547 C25.86230469 5.03060547 25.86230469 5.69060547 25.86230469 6.37060547 C25.26369629 6.15766846 24.66508789 5.94473145 24.04833984 5.7253418 C17.63125665 3.60018772 11.97165278 2.92766241 5.23730469 3.05810547 C4.28380127 3.06720947 3.33029785 3.07631348 2.34790039 3.08569336 C-5.93300941 3.22943745 -13.95499582 4.1342345 -22.13769531 5.37060547 C-23.96984321 5.58911852 -25.80303093 5.79933905 -27.63769531 5.99560547 C-28.79269531 6.11935547 -29.94769531 6.24310547 -31.13769531 6.37060547 C-31.13769531 5.71060547 -31.13769531 5.05060547 -31.13769531 4.37060547 C-29.48769531 4.37060547 -27.83769531 4.37060547 -26.13769531 4.37060547 C-26.13769531 3.71060547 -26.13769531 3.05060547 -26.13769531 2.37060547 C-17.41501607 0.56841615 -8.87518002 -0.00206496 0 0 Z " fill="#FAD0CB" transform="translate(406.1376953125,25.62939453125)"/>
<path d="M0 0 C0.66 0.33 1.32 0.66 2 1 C1.319375 1.5878125 1.319375 1.5878125 0.625 2.1875 C-6.01635482 9.59516499 -3 19.59018535 -3 29 C30.165 29.495 30.165 29.495 64 30 C64 30.33 64 30.66 64 31 C41.23 31 18.46 31 -5 31 C-5 5 -5 5 0 0 Z " fill="#FFE2E1" transform="translate(483,87)"/>
<path d="M0 0 C-0.47780492 4.30024427 -2.93427518 6.13421376 -6 9 C-7.17066892 10.16265064 -8.33714802 11.32953108 -9.5 12.5 C-10.09683594 13.09554687 -10.69367188 13.69109375 -11.30859375 14.3046875 C-12.73602381 15.73541417 -14.15074097 17.17880782 -15.5625 18.625 C-23.13157895 26 -23.13157895 26 -26 26 C-26 26.66 -26 27.32 -26 28 C-31.47619048 33 -31.47619048 33 -34 33 C-34 31.68 -34 30.36 -34 29 C-33.01 29 -32.02 29 -31 29 C-31 28.34 -31 27.68 -31 27 C-27.67296922 23.08584614 -24.97360357 21.27231719 -20 20 C-20 19.34 -20 18.68 -20 18 C-19.01 18 -18.02 18 -17 18 C-17 17.01 -17 16.02 -17 15 C-15.68 14.67 -14.36 14.34 -13 14 C-13 13.34 -13 12.68 -13 12 C-12.34 12 -11.68 12 -11 12 C-10.9071875 11.071875 -10.9071875 11.071875 -10.8125 10.125 C-10 8 -10 8 -7.4375 6.75 C-6.633125 6.5025 -5.82875 6.255 -5 6 C-5 5.01 -5 4.02 -5 3 C-2.55555556 0 -2.55555556 0 0 0 Z " fill="#C0423D" transform="translate(438,68)"/>
<path d="M0 0 C0.99 0.33 1.98 0.66 3 1 C-10.55485893 13.18495298 -10.55485893 13.18495298 -16 15 C-16 15.66 -16 16.32 -16 17 C-18.3359375 18.7265625 -18.3359375 18.7265625 -21.375 20.625 C-22.87160156 21.57246094 -22.87160156 21.57246094 -24.3984375 22.5390625 C-27 24 -27 24 -29 24 C-29 32.25 -29 40.5 -29 49 C-29.33 49 -29.66 49 -30 49 C-30 40.09 -30 31.18 -30 22 C-29.34 22 -28.68 22 -28 22 C-28 21.34 -28 20.68 -28 20 C-27.01 20 -26.02 20 -25 20 C-25 19.34 -25 18.68 -25 18 C-23.68 18 -22.36 18 -21 18 C-21 17.34 -21 16.68 -21 16 C-19.68 16 -18.36 16 -17 16 C-16.67 14.68 -16.34 13.36 -16 12 C-15.01 12 -14.02 12 -13 12 C-13 11.01 -13 10.02 -13 9 C-11.68 9 -10.36 9 -9 9 C-9 8.01 -9 7.02 -9 6 C-7.02 5.67 -5.04 5.34 -3 5 C-3 4.01 -3 3.02 -3 2 C-2.01 2 -1.02 2 0 2 C0 1.34 0 0.68 0 0 Z " fill="#C14440" transform="translate(400,102)"/>
<path d="M0 0 C0 3.38755275 -0.43021201 5.00313201 -2 8 C-5 10.5 -5 10.5 -8 13 C-8.6857838 14.65889204 -9.35108209 16.326343 -10 18 C-11.48046875 20.140625 -11.48046875 20.140625 -13.1875 22.25 C-13.80496094 23.02085938 -14.42242188 23.79171875 -15.05859375 24.5859375 C-15.69925781 25.38257812 -16.33992187 26.17921875 -17 27 C-18.81135786 29.34846806 -20.61682302 31.70137207 -22.421875 34.0546875 C-23.86990453 35.83963479 -25.26877423 37.48755551 -27 39 C-27.66 39 -28.32 39 -29 39 C-27.45463516 35.69291925 -25.57205999 32.75273101 -23.5 29.75 C-22.8915625 28.85796875 -22.283125 27.9659375 -21.65625 27.046875 C-21.1096875 26.37140625 -20.563125 25.6959375 -20 25 C-19.34 25 -18.68 25 -18 25 C-17.88527344 24.41734375 -17.77054688 23.8346875 -17.65234375 23.234375 C-16.95175938 20.83476865 -16.01807405 19.27139067 -14.5625 17.25 C-14.13066406 16.63640625 -13.69882812 16.0228125 -13.25390625 15.390625 C-12.84011719 14.93171875 -12.42632813 14.4728125 -12 14 C-11.34 14 -10.68 14 -10 14 C-9.773125 13.443125 -9.54625 12.88625 -9.3125 12.3125 C-7.64333462 9.37158957 -5.3864325 7.3864325 -3 5 C-1.94712186 3.36622358 -0.9272999 1.70818403 0 0 Z " fill="#F6C2C1" transform="translate(538,13)"/>
<path d="M0 0 C3.96 0 7.92 0 12 0 C12.33 0.66 12.66 1.32 13 2 C26.365 2.495 26.365 2.495 40 3 C40 2.34 40 1.68 40 1 C44.62 0.67 49.24 0.34 54 0 C54 5.94 54 11.88 54 18 C53.67 18 53.34 18 53 18 C53 13.05 53 8.1 53 3 C51.03546875 3.23976562 51.03546875 3.23976562 49.03125 3.484375 C42.25972734 4.15675859 35.49369428 4.22198908 28.69580078 4.24023438 C26.50385167 4.24998287 24.31282597 4.28112651 22.12109375 4.3125 C14.33730749 4.3693256 7.32278638 3.9495792 0 1 C0 0.67 0 0.34 0 0 Z " fill="#584C81" transform="translate(176,129)"/>
<path d="M0 0 C3.3865973 2.92478858 4.80664087 5.83041024 5.20703125 10.32299805 C5.30607867 13.13475839 5.32187813 15.9365608 5.3125 18.75 C5.32861328 19.70132813 5.34472656 20.65265625 5.36132812 21.6328125 C5.36741938 30.52604446 2.98528802 37.44618177 -0.9375 45.375 C-1.42089844 46.37273437 -1.90429688 47.37046875 -2.40234375 48.3984375 C-4.01614155 51.02628429 -5.41989943 52.361664 -8 54 C-8 52.68 -8 51.36 -8 50 C-7.01 50 -6.02 50 -5 50 C-5 48.68 -5 47.36 -5 46 C-4.34 46 -3.68 46 -3 46 C-2.87625 45.05125 -2.7525 44.1025 -2.625 43.125 C-2 40 -2 40 0 38 C0.38449053 36.09255184 0.38449053 36.09255184 0.5 34 C0.77777778 30.22222222 0.77777778 30.22222222 3 28 C3.17283478 25.00615017 3.23196807 22.11606312 3.1875 19.125 C3.18685547 18.30902344 3.18621094 17.49304688 3.18554688 16.65234375 C3.15810315 12.91389871 3.02102151 9.61660588 2 6 C1.34 6 0.68 6 0 6 C0 4.02 0 2.04 0 0 Z " fill="#FDDAD6" transform="translate(472,26)"/>
<path d="M0 0 C2.63744721 1.14003259 4.56020439 1.19266891 7.42926025 1.17874146 C8.47003723 1.17859039 9.51081421 1.17843933 10.58312988 1.17828369 C11.69992126 1.16796112 12.81671265 1.15763855 13.96734619 1.14700317 C15.11588074 1.14417328 16.26441528 1.14134338 17.44775391 1.13842773 C21.11584901 1.1272333 24.78369989 1.10212971 28.45172119 1.07669067 C30.93869683 1.06665994 33.4256763 1.05753425 35.91265869 1.04934692 C42.00909617 1.02729636 48.10539123 0.99382592 54.20172119 0.95169067 C54.20172119 1.61169067 54.20172119 2.27169067 54.20172119 2.95169067 C32.75172119 2.95169067 11.30172119 2.95169067 -10.79827881 2.95169067 C-10.79827881 2.29169067 -10.79827881 1.63169067 -10.79827881 0.95169067 C-10.13827881 0.95169067 -9.47827881 0.95169067 -8.79827881 0.95169067 C-8.79827881 0.29169067 -8.79827881 -0.36830933 -8.79827881 -1.04830933 C-4.86279221 -1.98039826 -3.47800803 -2.02750999 0 0 Z " fill="#C72D25" transform="translate(421.79827880859375,123.04830932617188)"/>
<path d="M0 0 C23.1 0 46.2 0 70 0 C70 0.33 70 0.66 70 1 C47.23 1 24.46 1 1 1 C1.33 2.65 1.66 4.3 2 6 C2.66 6.33 3.32 6.66 4 7 C3.67 8.65 3.34 10.3 3 12 C2.34 12 1.68 12 1 12 C0 9 0 9 0 0 Z " fill="#2D1E5E" transform="translate(164,105)"/>
<path d="M0 0 C0.33 0 0.66 0 1 0 C1.29797895 8.19442106 -0.23065875 15.28540651 -3 23 C-3.66 23 -4.32 23 -5 23 C-5.2475 23.556875 -5.495 24.11375 -5.75 24.6875 C-7.80076747 28.48141982 -9.8872492 31.33764834 -13.625 33.5625 C-16.22473936 35.13602645 -16.94034725 36.20637001 -18 39 C-19.32 38.67 -20.64 38.34 -22 38 C-20.515 37.505 -20.515 37.505 -19 37 C-18.30547538 35.68096332 -17.64222885 34.34527482 -17 33 C-15.34375 31.18359375 -15.34375 31.18359375 -13.5 29.4375 C-11.27903267 27.32475777 -9.72257583 25.58386374 -8 23 C-7.34 23 -6.68 23 -6 23 C-3.40757075 15.42212987 -0.86811709 7.98667723 0 0 Z " fill="#F6C2C0" transform="translate(443,49)"/>
<path d="M0 0 C0.66 0.33 1.32 0.66 2 1 C1.01 2.485 1.01 2.485 0 4 C-0.66 4 -1.32 4 -2 4 C-2.33 4.99 -2.66 5.98 -3 7 C-3.99 7.495 -3.99 7.495 -5 8 C-5.33 8.99 -5.66 9.98 -6 11 C-7.92578125 12.0625 -7.92578125 12.0625 -10.3125 13 C-13.57454829 14.35052955 -16.30865572 15.65970063 -19 18 C-20.32 17.34 -21.64 16.68 -23 16 C-21.948125 15.34644531 -21.948125 15.34644531 -20.875 14.6796875 C-15.04357103 11.01919812 -9.44035569 7.21657857 -4 3 C-2.66807247 1.99812833 -1.33509183 0.99765104 0 0 Z " fill="#C9443F" transform="translate(436,105)"/>
<path d="M0 0 C0.66 0 1.32 0 2 0 C2.33 9.9 2.66 19.8 3 30 C11.58 30 20.16 30 29 30 C29.66 28.68 30.32 27.36 31 26 C31 27.98 31 29.96 31 32 C21.1 32 11.2 32 1 32 C0.67 21.44 0.34 10.88 0 0 Z " fill="#FEE1DF" transform="translate(547,118)"/>
<path d="M0 0 C0.66 0 1.32 0 2 0 C2 0.66 2 1.32 2 2 C24.77 2 47.54 2 71 2 C71 2.33 71 2.66 71 3 C47.24 3 23.48 3 -1 3 C-0.67 2.01 -0.34 1.02 0 0 Z " fill="#E38E8A" transform="translate(406,125)"/>
<path d="M0 0 C0 4.34103409 -2.60879029 6.6033966 -5.25 9.8125 C-8.73103925 14.09299052 -11.95375337 18.39106842 -15 23 C-17.625 25.875 -17.625 25.875 -20 28 C-20.66 28 -21.32 28 -22 28 C-21.6875 26.0625 -21.6875 26.0625 -21 24 C-20.01 23.67 -19.02 23.34 -18 23 C-17.6278958 21.67696283 -17.29369827 20.34262065 -17 19 C-16.34 18.67 -15.68 18.34 -15 18 C-14.67 17.01 -14.34 16.02 -14 15 C-13.01 15 -12.02 15 -11 15 C-10.67 13.35 -10.34 11.7 -10 10 C-9.01 10 -8.02 10 -7 10 C-6.896875 9.360625 -6.79375 8.72125 -6.6875 8.0625 C-6.460625 7.381875 -6.23375 6.70125 -6 6 C-5.01 5.67 -4.02 5.34 -3 5 C-3 4.01 -3 3.02 -3 2 C-2.01 1.34 -1.02 0.68 0 0 Z " fill="#C3403C" transform="translate(511,46)"/>
<path d="M0 0 C25.13578307 -1.09038034 25.13578307 -1.09038034 34 5 C36.40370293 7.22021416 38.09859525 9.30634326 40 12 C36.90127153 10.46387819 33.88229224 8.92152816 31 7 C31 6.34 31 5.68 31 5 C30.01 5.061875 29.02 5.12375 28 5.1875 C24.41728457 5.20168897 21.89343668 4.12345144 18.59765625 2.734375 C12.62734168 1.04652667 6.16979688 1.21714091 0 1 C0 0.67 0 0.34 0 0 Z " fill="#C2514D" transform="translate(400,28)"/>
<path d="M0 0 C0.66 0.33 1.32 0.66 2 1 C-1.625 5.875 -1.625 5.875 -5 7 C-5.45375 7.94875 -5.9075 8.8975 -6.375 9.875 C-8.22456925 13.43186393 -9.48074113 14.24037057 -13 16 C-14.2065625 16.7734375 -14.2065625 16.7734375 -15.4375 17.5625 C-18.21722511 19.12185799 -20.95512493 20.07945637 -24 21 C-21.11648289 18.02260094 -18.10170394 15.35062706 -14.875 12.75 C-14.00617188 12.04359375 -13.13734375 11.3371875 -12.2421875 10.609375 C-10 9 -10 9 -8 9 C-7.34 7.68 -6.68 6.36 -6 5 C-5.34 5 -4.68 5 -4 5 C-4 4.34 -4 3.68 -4 3 C-2 1.375 -2 1.375 0 0 Z " fill="#F6CCCC" transform="translate(416,91)"/>
<path d="M0 0 C0.93065133 2.60582371 1.14917407 3.64198224 0.0625 6.25 C-0.4634375 7.11625 -0.4634375 7.11625 -1 8 C-1.66 8 -2.32 8 -3 8 C-3 11.63 -3 15.26 -3 19 C9.21 19 21.42 19 34 19 C34 19.33 34 19.66 34 20 C21.46 20 8.92 20 -4 20 C-4 4 -4 4 0 0 Z " fill="#6A618C" transform="translate(167,68)"/>
<path d="M0 0 C-3.9745942 1.80663373 -7.69017128 2.41983075 -12 3 C-12.33 3.33 -12.66 3.66 -13 4 C-17.32490853 4.4652292 -21.65935537 4.70500473 -26 5 C-26.33 10.94 -26.66 16.88 -27 23 C-27.33 23 -27.66 23 -28 23 C-28 16.73 -28 10.46 -28 4 C-26.63875 3.731875 -25.2775 3.46375 -23.875 3.1875 C-20.68976494 2.55955366 -17.52388715 1.89067795 -14.359375 1.1640625 C-12.51085937 0.74253906 -12.51085937 0.74253906 -10.625 0.3125 C-9.46226562 0.04050781 -8.29953125 -0.23148438 -7.1015625 -0.51171875 C-4.23846926 -0.96245761 -2.67768806 -0.98269833 0 0 Z " fill="#F3B9B4" transform="translate(402,9)"/>
<path d="M0 0 C0.66 0 1.32 0 2 0 C4.45564327 3.76142183 4.30420085 7.53941574 4.25 11.875 C4.24613281 12.61935303 4.24226563 13.36370605 4.23828125 14.13061523 C4.13003758 21.19727312 3.23542054 28.03972892 2 35 C1.34 35 0.68 35 0 35 C0.16242188 33.91074219 0.32484375 32.82148437 0.4921875 31.69921875 C1.15229793 26.4031738 1.1464784 21.14272195 1.125 15.8125 C1.12886719 14.84119141 1.13273437 13.86988281 1.13671875 12.86914062 C1.13542969 11.92876953 1.13414062 10.98839844 1.1328125 10.01953125 C1.13168457 9.17495361 1.13055664 8.33037598 1.12939453 7.46020508 C0.99426948 4.89104436 0.56386047 2.50713529 0 0 Z " fill="#C85955" transform="translate(475,29)"/>
<path d="M0 0 C0.99 0 1.98 0 3 0 C3 0.66 3 1.32 3 2 C2.34 2 1.68 2 1 2 C0.61714844 2.87011719 0.61714844 2.87011719 0.2265625 3.7578125 C-3.52493014 10.61563663 -10.71627481 15.58802274 -17 20 C-17.33 19.34 -17.66 18.68 -18 18 C-17.34 18 -16.68 18 -16 18 C-16 17.01 -16 16.02 -16 15 C-15.01 15 -14.02 15 -13 15 C-13 14.01 -13 13.02 -13 12 C-11.35 11.67 -9.7 11.34 -8 11 C-8 10.01 -8 9.02 -8 8 C-7.01 8 -6.02 8 -5 8 C-5 6.68 -5 5.36 -5 4 C-3.35 3.34 -1.7 2.68 0 2 C0 1.34 0 0.68 0 0 Z " fill="#FACFCA" transform="translate(461,80)"/>
<path d="M0 0 C2.32695682 3.49043523 3.12649759 5.03734166 3.09765625 9.1328125 C3.09282227 10.34130859 3.09282227 10.34130859 3.08789062 11.57421875 C3.07951172 12.41597656 3.07113281 13.25773437 3.0625 14.125 C3.05798828 14.97449219 3.05347656 15.82398437 3.04882812 16.69921875 C3.03702874 18.79950909 3.01909306 20.8997633 3 23 C2.01 22.67 1.02 22.34 0 22 C-0.33 22.99 -0.66 23.98 -1 25 C-0.67 16.75 -0.34 8.5 0 0 Z " fill="#2B1F5C" transform="translate(127,83)"/>
<path d="M0 0 C0.66 1.32 1.32 2.64 2 4 C0.68 4 -0.64 4 -2 4 C-2.3403125 5.36125 -2.3403125 5.36125 -2.6875 6.75 C-4.21290245 10.52718703 -5.843158 11.53612332 -9 14 C-10.80979141 17.11662908 -10.80979141 17.11662908 -12 20 C-12.66 20 -13.32 20 -14 20 C-14 21.32 -14 22.64 -14 24 C-15.98 24.66 -17.96 25.32 -20 26 C-19.05016642 24.49460339 -18.08988109 22.99579653 -17.125 21.5 C-16.59132813 20.6646875 -16.05765625 19.829375 -15.5078125 18.96875 C-15.01023437 18.3190625 -14.51265625 17.669375 -14 17 C-13.34 17 -12.68 17 -12 17 C-11.66355469 15.95779297 -11.66355469 15.95779297 -11.3203125 14.89453125 C-9.69836762 11.33872901 -7.4122579 8.61209839 -4.875 5.6875 C-4.40707031 5.13771484 -3.93914062 4.58792969 -3.45703125 4.02148438 C-2.31047517 2.67603591 -1.15602549 1.337321 0 0 Z " fill="#F2B8B3" transform="translate(508,52)"/>
<path d="M0 0 C0.66 0 1.32 0 2 0 C0.4785114 4.39081764 -1.85939639 8.02875969 -4.5 11.8125 C-5.10521484 12.7087207 -5.10521484 12.7087207 -5.72265625 13.62304688 C-6.76039782 15.12143611 -7.87475797 16.56615614 -9 18 C-9.66 18 -10.32 18 -11 18 C-11.99 20.475 -11.99 20.475 -13 23 C-13.6875 21.1875 -13.6875 21.1875 -14 19 C-13.02351983 17.97702078 -12.01868662 16.98095748 -11 16 C-10.71125 14.989375 -10.4225 13.97875 -10.125 12.9375 C-9 10 -9 10 -6.375 8.625 C-5.59125 8.41875 -4.8075 8.2125 -4 8 C-4 7.01 -4 6.02 -4 5 C-3.34 5 -2.68 5 -2 5 C-2 4.34 -2 3.68 -2 3 C-1.34 3 -0.68 3 0 3 C0 2.01 0 1.02 0 0 Z " fill="#FCDAD9" transform="translate(524,62)"/>
<path d="M0 0 C0.33 0 0.66 0 1 0 C1 18.48 1 36.96 1 56 C0.67 56 0.34 56 0 56 C0 38.84 0 21.68 0 4 C-0.66 4 -1.32 4 -2 4 C-1.34 2.68 -0.68 1.36 0 0 Z " fill="#BA3E3B" transform="translate(546,36)"/>
<path d="M0 0 C0.33 0.66 0.66 1.32 1 2 C0.34 3.32 -0.32 4.64 -1 6 C12.2 6 25.4 6 39 6 C39.33 5.01 39.66 4.02 40 3 C40 4.32 40 5.64 40 7 C25.48 7 10.96 7 -4 7 C-2 2 -2 2 0 0 Z " fill="#BD504D" transform="translate(507,89)"/>
<path d="M0 0 C0.33 1.32 0.66 2.64 1 4 C0.34 4 -0.32 4 -1 4 C-1.226875 4.721875 -1.45375 5.44375 -1.6875 6.1875 C-3 9 -3 9 -5.53125 10.84375 C-9.16858281 14.37044151 -8.67494078 18.89572817 -8.79492188 23.68164062 C-8.80072266 24.87982422 -8.80652344 26.07800781 -8.8125 27.3125 C-8.83763672 28.53001953 -8.86277344 29.74753906 -8.88867188 31.00195312 C-8.94748901 34.00162687 -8.98381039 36.99984298 -9 40 C-9.33 40 -9.66 40 -10 40 C-10.20466631 35.66737174 -10.32809533 31.33599716 -10.4375 27 C-10.52547852 25.16888672 -10.52547852 25.16888672 -10.61523438 23.30078125 C-10.73102847 17.18023638 -10.76780729 13.03527743 -6.59375 8.3125 C-5.40241045 7.20124015 -4.20523678 6.09617183 -3 5 C-1.13696895 2.20856537 -1.13696895 2.20856537 0 0 Z " fill="#F9B5B2" transform="translate(487,78)"/>
<path d="M0 0 C0.556875 0.350625 1.11375 0.70125 1.6875 1.0625 C3.92114766 2.22461091 3.92114766 2.22461091 6.0625 1.53125 C10.19901675 0.78315654 14.13561745 1.1506896 18.3125 1.4375 C19.14845703 1.48970703 19.98441406 1.54191406 20.84570312 1.59570312 C22.89750789 1.72467371 24.94881306 1.86155021 27 2 C27 2.33 27 2.66 27 3 C25.87356079 3.07516846 25.87356079 3.07516846 24.72436523 3.15185547 C21.29483042 3.38512837 17.86621341 3.62996128 14.4375 3.875 C12.66536133 3.99294922 12.66536133 3.99294922 10.85742188 4.11328125 C4.97827389 4.54145449 -0.42251031 5.05074516 -6 7 C-6.33 6.34 -6.66 5.68 -7 5 C-6.030625 4.54625 -5.06125 4.0925 -4.0625 3.625 C-0.92920418 2.34213779 -0.92920418 2.34213779 0 0 Z " fill="#322269" transform="translate(167,42)"/>
<path d="M0 0 C0.99 0 1.98 0 3 0 C3 8.25 3 16.5 3 25 C2.34 25 1.68 25 1 25 C0.67 16.75 0.34 8.5 0 0 Z " fill="#BF3B36" transform="translate(477,126)"/>
<path d="M0 0 C-2.79157673 1.86105115 -4.17547436 2.41640294 -7.34375 3.0703125 C-8.17777344 3.24433594 -9.01179688 3.41835938 -9.87109375 3.59765625 C-11.17240234 3.85869141 -11.17240234 3.85869141 -12.5 4.125 C-13.36753906 4.30675781 -14.23507812 4.48851562 -15.12890625 4.67578125 C-21.57078242 6 -21.57078242 6 -25 6 C-25 5.34 -25 4.68 -25 4 C-23.35 4 -21.7 4 -20 4 C-20 3.34 -20 2.68 -20 2 C-13.25846717 0.74158054 -6.86515862 -0.26404456 0 0 Z " fill="#FDE2DC" transform="translate(400,26)"/>
<path d="M0 0 C6.28260706 -0.23268915 11.88019467 0.59545452 18 2 C18.33 2.99 18.66 3.98 19 5 C19.78375 5.061875 20.5675 5.12375 21.375 5.1875 C22.24125 5.455625 23.1075 5.72375 24 6 C25.1640625 8.55078125 25.1640625 8.55078125 26 11 C24.96101563 10.44570313 23.92203125 9.89140625 22.8515625 9.3203125 C11.95596747 3.61895771 11.95596747 3.61895771 0 1 C0 0.67 0 0.34 0 0 Z " fill="#564B7F" transform="translate(195,45)"/>
<path d="M0 0 C0.66 0.33 1.32 0.66 2 1 C0.6875 3 0.6875 3 -1 5 C-1.99 5 -2.98 5 -4 5 C-5.6877081 6.76401402 -5.6877081 6.76401402 -7.1875 9 C-7.71730469 9.7425 -8.24710937 10.485 -8.79296875 11.25 C-9.19128906 11.8275 -9.58960938 12.405 -10 13 C-11.32 12.34 -12.64 11.68 -14 11 C-12.4886526 6.76822727 -9.78176849 5.2245697 -6 3 C-4.34630643 2.30177383 -2.68272986 1.62501395 -1 1 C-0.67 0.67 -0.34 0.34 0 0 Z " fill="#C73930" transform="translate(450,96)"/>
<path d="M0 0 C0.33 0 0.66 0 1 0 C2.96929244 8.64913242 2.87290921 18.54087844 0 27 C-0.66 27.33 -1.32 27.66 -2 28 C-1.34 18.76 -0.68 9.52 0 0 Z " fill="#C82C27" transform="translate(479,36)"/>
<path d="M0 0 C0.66 0.33 1.32 0.66 2 1 C-0.88504171 5.94753961 -3.75082804 10.08628899 -8 14 C-8.8971875 14.8971875 -8.8971875 14.8971875 -9.8125 15.8125 C-10.204375 16.204375 -10.59625 16.59625 -11 17 C-11 15.35 -11 13.7 -11 12 C-10.01 12 -9.02 12 -8 12 C-7.9175 11.21625 -7.835 10.4325 -7.75 9.625 C-7 7 -7 7 -4.9375 5.6875 C-3.9784375 5.3471875 -3.9784375 5.3471875 -3 5 C-3 4.01 -3 3.02 -3 2 C-2.01 2 -1.02 2 0 2 C0 1.34 0 0.68 0 0 Z " fill="#C53D3A" transform="translate(538,10)"/>
<path d="M0 0 C7.11513755 -0.53699151 12.44995746 1.30292366 19 4 C19 4.99 19 5.98 19 7 C20.32 7.33 21.64 7.66 23 8 C21.22265625 8.640625 21.22265625 8.640625 19 9 C17.24609375 8.109375 17.24609375 8.109375 15.4375 6.75 C10.64169037 3.49537683 5.6008287 2.26636384 0 1 C0 0.67 0 0.34 0 0 Z " fill="#C5514B" transform="translate(445,8)"/>
<path d="M0 0 C12.21 0 24.42 0 37 0 C37 0.33 37 0.66 37 1 C35.99622314 1.01458252 34.99244629 1.02916504 33.95825195 1.04418945 C30.2212425 1.10232052 26.48482631 1.17955165 22.74829102 1.26245117 C21.13348037 1.2956311 19.51855569 1.32368458 17.90356445 1.34643555 C15.57714408 1.38011025 13.25176217 1.43242963 10.92578125 1.48828125 C9.84892815 1.49786613 9.84892815 1.49786613 8.75032043 1.50764465 C4.3473424 1.63574942 1.56179954 2.39165746 -2 5 C-1.34 3.35 -0.68 1.7 0 0 Z " fill="#FDD3D1" transform="translate(541,8)"/>
<path d="M0 0 C0.66 0.33 1.32 0.66 2 1 C1.01773437 1.65742187 1.01773437 1.65742187 0.015625 2.328125 C-3.13473401 6.50418229 -2.42574638 10.6736335 -2.25 15.75 C-2.23195313 16.73355469 -2.21390625 17.71710938 -2.1953125 18.73046875 C-2.14824126 21.15463783 -2.08250742 23.57682059 -2 26 C0.31 26.33 2.62 26.66 5 27 C5 27.33 5 27.66 5 28 C2.03 28 -0.94 28 -4 28 C-4.11591764 23.89606988 -4.18715601 19.79255894 -4.25 15.6875 C-4.28351563 14.52025391 -4.31703125 13.35300781 -4.3515625 12.15039062 C-4.36445313 11.03212891 -4.37734375 9.91386719 -4.390625 8.76171875 C-4.41157227 7.73006592 -4.43251953 6.69841309 -4.45410156 5.63549805 C-4 3 -4 3 -1.97558594 1.13989258 C-1.32364258 0.76372803 -0.67169922 0.38756348 0 0 Z " fill="#FBDBD9" transform="translate(377,122)"/>
<path d="M0 0 C2.81261 2.81261 2.28953797 4.89036367 2.32226562 8.734375 C2.31743164 10.04148437 2.31743164 10.04148437 2.3125 11.375 C2.32861328 12.23867187 2.34472656 13.10234375 2.36132812 13.9921875 C2.36197266 14.8275 2.36261719 15.6628125 2.36328125 16.5234375 C2.36626221 17.28575684 2.36924316 18.04807617 2.37231445 18.83349609 C2 21 2 21 -1 25 C-0.67 16.75 -0.34 8.5 0 0 Z " fill="#281C5F" transform="translate(90,88)"/>
<path d="M0 0 C0.33 0 0.66 0 1 0 C1.33 2.31 1.66 4.62 2 7 C2.99 7.33 3.98 7.66 5 8 C5.33 9.98 5.66 11.96 6 14 C5.01 14.495 5.01 14.495 4 15 C3.59270772 17.32156597 3.25561323 19.6568787 3 22 C2.67 22 2.34 22 2 22 C1.92652344 21.09121094 1.92652344 21.09121094 1.8515625 20.1640625 C1.36161172 14.67323484 0.54576401 9.40358119 -0.6953125 4.03125 C-1 2 -1 2 0 0 Z " fill="#34276A" transform="translate(233,70)"/>
<path d="M0 0 C0.66 0 1.32 0 2 0 C1.8125 1.875 1.8125 1.875 1 4 C-0.65 4.66 -2.3 5.32 -4 6 C-4 14.25 -4 22.5 -4 31 C-4.33 31 -4.66 31 -5 31 C-5 22.09 -5 13.18 -5 4 C-4.34 4 -3.68 4 -3 4 C-3 3.34 -3 2.68 -3 2 C-2.01 2 -1.02 2 0 2 C0 1.34 0 0.68 0 0 Z " fill="#C1332F" transform="translate(375,120)"/>
<path d="M0 0 C0.99 0.33 1.98 0.66 3 1 C2.34 1.66 1.68 2.32 1 3 C0.69324768 5.89967757 0.48826629 8.71783178 0.375 11.625 C0.33632812 12.42679688 0.29765625 13.22859375 0.2578125 14.0546875 C0.16346069 16.03607556 0.08063785 18.01800645 0 20 C-2.27022665 15.4595467 -3.10445964 13.1777675 -2.6875 8 C-2.60886719 6.9275 -2.53023437 5.855 -2.44921875 4.75 C-2 2 -2 2 0 0 Z " fill="#2C1D5E" transform="translate(233,44)"/>
<path d="M0 0 C0.33 0.66 0.66 1.32 1 2 C1.99 2.33 2.98 2.66 4 3 C0.89914429 5.06723714 0.27068319 5.24497423 -3.23046875 5.1953125 C-4.03291016 5.18886719 -4.83535156 5.18242187 -5.66210938 5.17578125 C-6.49548828 5.15902344 -7.32886719 5.14226562 -8.1875 5.125 C-9.03248047 5.11597656 -9.87746094 5.10695312 -10.74804688 5.09765625 C-12.83215243 5.07410703 -14.91611217 5.03823647 -17 5 C-13.81091946 2.17365848 -11.59641344 1.59119098 -7.375 1.375 C-3.54181517 1.24013568 -3.54181517 1.24013568 0 0 Z " fill="#413370" transform="translate(66,129)"/>
<path d="M0 0 C1.32 0.33 2.64 0.66 4 1 C2.39612733 2.1254191 0.79189084 3.25031972 -0.8125 4.375 C-1.70582031 5.00148438 -2.59914063 5.62796875 -3.51953125 6.2734375 C-5.33267878 7.53550239 -7.16188211 8.77458808 -9 10 C-9.99 9.67 -10.98 9.34 -12 9 C-11.67 8.34 -11.34 7.68 -11 7 C-10.01 7 -9.02 7 -8 7 C-7.67 6.01 -7.34 5.02 -7 4 C-4 2 -4 2 0 2 C0 1.34 0 0.68 0 0 Z " fill="#FCD7DB" transform="translate(418,115)"/>
<path d="M0 0 C0.33 0.99 0.66 1.98 1 3 C-0.98 3.99 -0.98 3.99 -3 5 C-3 5.66 -3 6.32 -3 7 C-8.47619048 12 -8.47619048 12 -11 12 C-11 10.68 -11 9.36 -11 8 C-10.01 8 -9.02 8 -8 8 C-8 7.34 -8 6.68 -8 6 C-3.69767442 1.23255814 -3.69767442 1.23255814 0 0 Z " fill="#C63A32" transform="translate(415,89)"/>
<path d="M0 0 C3.12961205 3.12961205 3.15763436 5.95255269 3.1875 10.1875 C3.15468129 15.12343404 2.42293171 19.28653873 1 24 C0.67 24 0.34 24 0 24 C0 16.08 0 8.16 0 0 Z " fill="#CB5F57" transform="translate(440,40)"/>
<path d="M0 0 C0.66 0.33 1.32 0.66 2 1 C1.319375 1.5878125 1.319375 1.5878125 0.625 2.1875 C-2.54735439 5.72589528 -3.25232591 9.4354384 -3.1953125 14.08203125 C-3.18886719 15.01337891 -3.18242187 15.94472656 -3.17578125 16.90429688 C-3.15902344 17.86400391 -3.14226562 18.82371094 -3.125 19.8125 C-3.11597656 20.79154297 -3.10695313 21.77058594 -3.09765625 22.77929688 C-3.07417182 25.18645061 -3.0413284 27.59309743 -3 30 C-3.66 30 -4.32 30 -5 30 C-5.14547545 25.93787788 -5.23413226 21.87642713 -5.3125 17.8125 C-5.35439453 16.66201172 -5.39628906 15.51152344 -5.43945312 14.32617188 C-5.5608921 5.94688237 -5.5608921 5.94688237 -3.86474609 3.08349609 C-2.48046875 1.69921875 -2.48046875 1.69921875 0 0 Z " fill="#FEEFED" transform="translate(483,87)"/>
<path d="M0 0 C4.52607164 6.78910746 4.25868794 13.53448575 4.125 21.4375 C4.11597656 22.45521484 4.10695312 23.47292969 4.09765625 24.52148438 C4.07424698 27.01457156 4.041457 29.50715859 4 32 C3.67 32 3.34 32 3 32 C2.95101562 31.030625 2.90203125 30.06125 2.8515625 29.0625 C2.32030015 19.30592209 1.32576089 9.67934166 0 0 Z " fill="#B4ACD0" transform="translate(231,72)"/>
<path d="M0 0 C1.42392554 2.84785108 0.31204369 4.68625522 -0.47949219 7.62890625 C-1.4114983 11.87451759 -1.47387967 16.16788391 -1.625 20.5 C-1.66367188 21.4178125 -1.70234375 22.335625 -1.7421875 23.28125 C-1.83549564 25.52064528 -1.92128185 27.76005254 -2 30 C-2.33 30 -2.66 30 -3 30 C-3.02505615 29.40985107 -3.0501123 28.81970215 -3.07592773 28.21166992 C-3.19200052 25.53673186 -3.31467572 22.8621362 -3.4375 20.1875 C-3.47681641 19.25873047 -3.51613281 18.32996094 -3.55664062 17.37304688 C-3.59853516 16.48037109 -3.64042969 15.58769531 -3.68359375 14.66796875 C-3.72025146 13.84578857 -3.75690918 13.0236084 -3.79467773 12.17651367 C-3.93427772 9.82094822 -3.93427772 9.82094822 -5 7 C-4.0409375 6.6596875 -4.0409375 6.6596875 -3.0625 6.3125 C-0.72806339 5.14749104 -0.72806339 5.14749104 -0.25 2.375 C-0.1675 1.59125 -0.085 0.8075 0 0 Z " fill="#584C82" transform="translate(133,78)"/>
<path d="M0 0 C0.33 0 0.66 0 1 0 C1.22641509 12.27672956 1.22641509 12.27672956 0 18 C-2 19.3125 -2 19.3125 -4 20 C-4.33 20.99 -4.66 21.98 -5 23 C-5.33 22.01 -5.66 21.02 -6 20 C-5.02656337 18.15382709 -4.05053674 16.30895209 -3.05859375 14.47265625 C-1.09179571 9.87862245 -0.6241784 4.9277242 0 0 Z " fill="#C62C21" transform="translate(440,48)"/>
<path d="M0 0 C0.33 0 0.66 0 1 0 C1 6.27 1 12.54 1 19 C-1.97 19 -4.94 19 -8 19 C-8 18.67 -8 18.34 -8 18 C-4.535 17.505 -4.535 17.505 -1 17 C-1 16.34 -1 15.68 -1 15 C-1.66 14.67 -2.32 14.34 -3 14 C-2.34 13.34 -1.68 12.68 -1 12 C-0.91420007 9.29730234 -0.90403109 6.69246104 -1 4 C-1 1 -1 1 0 0 Z " fill="#2A1C5E" transform="translate(246,27)"/>
<path d="M0 0 C-1.3921875 0.37125 -1.3921875 0.37125 -2.8125 0.75 C-7.15322107 1.97498877 -11.33696258 3.58425663 -15.546875 5.1953125 C-18 6 -18 6 -21 6 C-21 5.34 -21 4.68 -21 4 C-20.01 4 -19.02 4 -18 4 C-17.67 3.01 -17.34 2.02 -17 1 C-14.03 1.495 -14.03 1.495 -11 2 C-11 1.34 -11 0.68 -11 0 C-9.54263913 -0.19491452 -8.08405407 -0.38069358 -6.625 -0.5625 C-5.81289063 -0.66691406 -5.00078125 -0.77132813 -4.1640625 -0.87890625 C-2 -1 -2 -1 0 0 Z " fill="#52477B" transform="translate(271,18)"/>
<path d="M0 0 C-1 2 -1 2 -3.10546875 3.0859375 C-6.55412773 4.1749877 -9.70438441 4.42267576 -13.3125 4.625 C-14.56675781 4.69976562 -15.82101563 4.77453125 -17.11328125 4.8515625 C-18.54220703 4.92503906 -18.54220703 4.92503906 -20 5 C-14.28447359 1.18964906 -6.8536779 -0.55570361 0 0 Z " fill="#493D7A" transform="translate(97,147)"/>
<path d="M0 0 C1.31625194 2.63250388 0.74813658 3.80179056 0.0625 6.625 C-0.13214844 7.44226563 -0.32679688 8.25953125 -0.52734375 9.1015625 C-0.68332031 9.72804688 -0.83929688 10.35453125 -1 11 C-1.63808594 11.12503906 -2.27617187 11.25007813 -2.93359375 11.37890625 C-5.17978004 11.79068882 -5.17978004 11.79068882 -6.0625 13.9375 C-6.371875 14.618125 -6.68125 15.29875 -7 16 C-7.99 16.66 -8.98 17.32 -10 18 C-8.06706695 13.98544673 -5.75514924 10.23844475 -3.4375 6.4375 C-2.19233783 4.32613805 -1.06278973 2.20733252 0 0 Z " fill="#C8544F" transform="translate(474,64)"/>
<path d="M0 0 C6.27 0 12.54 0 19 0 C19 0.33 19 0.66 19 1 C15.04 1 11.08 1 7 1 C7 1.66 7 2.32 7 3 C6.01 3.495 6.01 3.495 5 4 C3.86649466 6.01669827 3.86649466 6.01669827 3 8 C0 2.25 0 2.25 0 0 Z " fill="#3F3170" transform="translate(228,64)"/>
<path d="M0 0 C0.33 0.66 0.66 1.32 1 2 C-1.49042587 8.22606467 -5.59046389 12.19328941 -11 16 C-9.32076975 12.19866558 -6.88537166 9.02917298 -4.375 5.75 C-3.95476563 5.19570313 -3.53453125 4.64140625 -3.1015625 4.0703125 C-2.07061281 2.71133337 -1.03570089 1.35536165 0 0 Z " fill="#CC5651" transform="translate(543,40)"/>
<path d="M0 0 C0.66 0.33 1.32 0.66 2 1 C1.01 2.485 1.01 2.485 0 4 C-0.268125 4.680625 -0.53625 5.36125 -0.8125 6.0625 C-2.45942237 8.74958386 -3.99513387 9.21301125 -7 10 C-9.3125 9.625 -9.3125 9.625 -11 9 C-9.35 8.34 -7.7 7.68 -6 7 C-6 6.34 -6 5.68 -6 5 C-4.04072937 3.2856382 -2.04119788 1.61594832 0 0 Z " fill="#F6D0CC" transform="translate(390,112)"/>
<path d="M0 0 C1.65 0 3.3 0 5 0 C3.625 1.5 3.625 1.5 2 3 C1.34 3 0.68 3 0 3 C0 3.66 0 4.32 0 5 C-2.1875 6.5078125 -2.1875 6.5078125 -5 8.125 C-5.928125 8.66382812 -6.85625 9.20265625 -7.8125 9.7578125 C-8.534375 10.16773437 -9.25625 10.57765625 -10 11 C-10 10.34 -10 9.68 -10 9 C-10.66 8.67 -11.32 8.34 -12 8 C-9.09399739 6.74335022 -7.20395416 6 -4 6 C-4 5.34 -4 4.68 -4 4 C-3.01 4 -2.02 4 -1 4 C-0.67 2.68 -0.34 1.36 0 0 Z " fill="#FCDBD9" transform="translate(438,100)"/>
<path d="M0 0 C5.90243463 0.70267079 10.18461342 2.18461342 14.4375 6.4375 C16 9 16 9 15.75 11.3125 C15.5025 11.869375 15.255 12.42625 15 13 C14.67 12.01 14.34 11.02 14 10 C10.34649897 5.59430758 7.44280309 4.43772157 2 3 C1.34 2.01 0.68 1.02 0 0 Z " fill="#514679" transform="translate(186,61)"/>
<path d="M0 0 C0.66 0.33 1.32 0.66 2 1 C1.45730469 1.60328125 0.91460938 2.2065625 0.35546875 2.828125 C-0.35996094 3.62734375 -1.07539062 4.4265625 -1.8125 5.25 C-2.52019531 6.03890625 -3.22789062 6.8278125 -3.95703125 7.640625 C-6.00584152 9.93174458 -6.00584152 9.93174458 -7.63671875 12.296875 C-8.08660156 12.85890625 -8.53648437 13.4209375 -9 14 C-9.66 14 -10.32 14 -11 14 C-8.8527917 7.73730913 -5.24125182 3.93093886 0 0 Z " fill="#C94E4A" transform="translate(536,52)"/>
<path d="M0 0 C0.66 0.33 1.32 0.66 2 1 C-1.63 5.95 -5.26 10.9 -9 16 C-9.33 14.68 -9.66 13.36 -10 12 C-9.01 11.67 -8.02 11.34 -7 11 C-6.67 9.35 -6.34 7.7 -6 6 C-5.34 6 -4.68 6 -4 6 C-4 5.34 -4 4.68 -4 4 C-2.70766393 2.62689293 -1.37562854 1.28965176 0 0 Z " fill="#FCDBD6" transform="translate(538,44)"/>
<path d="M0 0 C0.66 0.33 1.32 0.66 2 1 C0.89847594 2.43952597 -0.2063304 3.87654071 -1.3125 5.3125 C-1.92738281 6.11300781 -2.54226563 6.91351563 -3.17578125 7.73828125 C-4.70793096 9.63788442 -6.155909 11.40385401 -8 13 C-8.66 13 -9.32 13 -10 13 C-8.60484422 10.01517153 -6.97667625 7.44642111 -5 4.8125 C-4.484375 4.11769531 -3.96875 3.42289063 -3.4375 2.70703125 C-2 1 -2 1 0 0 Z " fill="#FAD9D7" transform="translate(519,39)"/>
<path d="M0 0 C0.556875 0.268125 1.11375 0.53625 1.6875 0.8125 C-4.0625 5.8125 -4.0625 5.8125 -6.3125 5.8125 C-6.3125 11.0925 -6.3125 16.3725 -6.3125 21.8125 C-6.6425 21.8125 -6.9725 21.8125 -7.3125 21.8125 C-7.44798815 19.08166098 -7.54679855 16.35758193 -7.625 13.625 C-7.66689453 12.85607422 -7.70878906 12.08714844 -7.75195312 11.29492188 C-7.84539587 6.94049001 -7.70577249 5.31961452 -4.9375 1.75 C-2.3125 -0.1875 -2.3125 -0.1875 0 0 Z " fill="#FEF4F2" transform="translate(381.3125,122.1875)"/>
<path d="M0 0 C3.96 0 7.92 0 12 0 C12.33 0.66 12.66 1.32 13 2 C16.02934491 2.65772428 16.02934491 2.65772428 19 3 C19 3.33 19 3.66 19 4 C12.03672362 4.33693273 6.56654456 3.3030887 0 1 C0 0.67 0 0.34 0 0 Z " fill="#4F427A" transform="translate(176,129)"/>
<path d="M0 0 C0.66 0.33 1.32 0.66 2 1 C1.01 2.485 1.01 2.485 0 4 C-0.99 4 -1.98 4 -3 4 C-3.226875 4.61875 -3.45375 5.2375 -3.6875 5.875 C-5.37929835 8.61410209 -6.99244161 9.05024472 -10 10 C-10.66 9.34 -11.32 8.68 -12 8 C-11.21753906 7.50628906 -10.43507813 7.01257813 -9.62890625 6.50390625 C-8.61699219 5.86324219 -7.60507812 5.22257812 -6.5625 4.5625 C-5.55316406 3.92441406 -4.54382813 3.28632812 -3.50390625 2.62890625 C-1.15446165 1.22350458 -1.15446165 1.22350458 0 0 Z " fill="#C7504B" transform="translate(425,113)"/>
<path d="M0 0 C1.25541557 3.76624671 0.37061958 5.37188934 -1 9 C-1.66 9 -2.32 9 -3 9 C-3.103125 9.61875 -3.20625 10.2375 -3.3125 10.875 C-4 13 -4 13 -7 15 C-7 12.69 -7 10.38 -7 8 C-6.01 8.495 -6.01 8.495 -5 9 C-4.67 8.34 -4.34 7.68 -4 7 C-3.34 7 -2.68 7 -2 7 C-1.855625 6.030625 -1.71125 5.06125 -1.5625 4.0625 C-1 1 -1 1 0 0 Z " fill="#4A3F77" transform="translate(91,109)"/>
<path d="M0 0 C8.57142857 0.71428571 8.57142857 0.71428571 12 4 C12 3.34 12 2.68 12 2 C11.34 1.67 10.68 1.34 10 1 C10.99 1 11.98 1 13 1 C13 2.32 13 3.64 13 5 C13.99 5 14.98 5 16 5 C15.67 6.32 15.34 7.64 15 9 C14.50371094 8.59007812 14.00742188 8.18015625 13.49609375 7.7578125 C9.06026897 4.23945432 5.55087651 2.15643261 0 1 C0 0.67 0 0.34 0 0 Z " fill="#4B407A" transform="translate(96,47)"/>
<path d="M0 0 C0.33 0.66 0.66 1.32 1 2 C2.32 2 3.64 2 5 2 C5 2.66 5 3.32 5 4 C5.66 4.33 6.32 4.66 7 5 C0.4 4.34 -6.2 3.68 -13 3 C-13 2.67 -13 2.34 -13 2 C-8.71 1.34 -4.42 0.68 0 0 Z " fill="#4E4178" transform="translate(89,42)"/>
<path d="M0 0 C0 0.33 0 0.66 0 1 C-6.83782175 3.4420792 -13.79431807 3.62022758 -21 4 C-16.00786026 -0.99213974 -6.62108332 -0.21358333 0 0 Z " fill="#BD4B48" transform="translate(397,29)"/>
<path d="M0 0 C0.33 0.66 0.66 1.32 1 2 C0.34 2 -0.32 2 -1 2 C-1 2.66 -1 3.32 -1 4 C5.93 4 12.86 4 20 4 C20 4.33 20 4.66 20 5 C12.08 5 4.16 5 -4 5 C-2 1 -2 1 0 0 Z " fill="#BE5048" transform="translate(412,122)"/>
<path d="M0 0 C0.33 0 0.66 0 1 0 C1.06058594 0.74765625 1.12117187 1.4953125 1.18359375 2.265625 C1.26738281 3.25046875 1.35117187 4.2353125 1.4375 5.25 C1.51871094 6.22453125 1.59992187 7.1990625 1.68359375 8.203125 C1.96346926 11.22771622 1.96346926 11.22771622 3 15 C5.97 15 8.94 15 12 15 C12 15.33 12 15.66 12 16 C8.04 16 4.08 16 0 16 C0 10.72 0 5.44 0 0 Z " fill="#B83834" transform="translate(580,80)"/>
<path d="M0 0 C3.15353929 0.84094381 5.46501019 1.50067618 7.875 3.75 C9.31217164 6.62434327 9.21618085 8.82934761 9 12 C5.81994972 8.11327187 2.89445553 4.10047867 0 0 Z " fill="#C5433D" transform="translate(466,17)"/>
<path d="M0 0 C0.66 0 1.32 0 2 0 C2 0.66 2 1.32 2 2 C9.26 2 16.52 2 24 2 C24 2.33 24 2.66 24 3 C15.75 3 7.5 3 -1 3 C-0.67 2.01 -0.34 1.02 0 0 Z " fill="#DC9691" transform="translate(406,125)"/>
<path d="M0 0 C0.33 0.66 0.66 1.32 1 2 C-0.4726862 5.27263601 -1.42695432 6.72014048 -4.6875 8.3125 C-5.450625 8.539375 -6.21375 8.76625 -7 9 C-6.40112592 5.64630514 -5.27617653 3.53881228 -3 1 C-2.01 0.67 -1.02 0.34 0 0 Z " fill="#C63F3A" transform="translate(527,65)"/>
<path d="M0 0 C2.33524782 2.25740623 4.18705073 4.2805761 6 7 C8.05003955 8.19232613 8.05003955 8.19232613 10 9 C8.375 9.75 8.375 9.75 6 10 C2.75 8.4375 2.75 8.4375 0 6 C-0.375 2.75 -0.375 2.75 0 0 Z " fill="#5A4F86" transform="translate(250,138)"/>
<path d="M0 0 C0 3 0 3 -1.4375 5 C-4.96707315 7.7547888 -8.73004528 8.7956538 -13 10 C-9.96112855 6.58126962 -6.59140038 4.37852008 -2.70703125 2.05078125 C-1.03551283 1.11267827 -1.03551283 1.11267827 0 0 Z " fill="#FCDBDA" transform="translate(405,102)"/>
<path d="M0 0 C0.99 0 1.98 0 3 0 C3 0.66 3 1.32 3 2 C2.34 2 1.68 2 1 2 C0.7525 2.598125 0.505 3.19625 0.25 3.8125 C-1.16370012 6.28647521 -2.65055383 7.43370255 -5 9 C-5 7.35 -5 5.7 -5 4 C-3.35 3.34 -1.7 2.68 0 2 C0 1.34 0 0.68 0 0 Z " fill="#FCD9D4" transform="translate(461,80)"/>
<path d="M0 0 C0.66 1.32 1.32 2.64 2 4 C0.68 4 -0.64 4 -2 4 C-2.2475 4.94875 -2.495 5.8975 -2.75 6.875 C-4 10 -4 10 -6.125 11.375 C-6.74375 11.58125 -7.3625 11.7875 -8 12 C-6.49087042 7.01987239 -3.44338151 3.75740058 0 0 Z " fill="#F9CAC9" transform="translate(508,52)"/>
<path d="M0 0 C0.33 0 0.66 0 1 0 C1.4375 2.125 1.4375 2.125 1 5 C-1.12689146 7.276147 -3.5023433 9.1458722 -6 11 C-4.74527195 6.50389116 -3.1520343 3.45706988 0 0 Z " fill="#CB2B22" transform="translate(469,76)"/>
<path d="M0 0 C0.66 0 1.32 0 2 0 C2 4 2 4 -0.375 6.75 C-3 9 -3 9 -5 9 C-4.6875 7.0625 -4.6875 7.0625 -4 5 C-3.01 4.67 -2.02 4.34 -1 4 C-0.26676204 1.98491642 -0.26676204 1.98491642 0 0 Z " fill="#C5372E" transform="translate(494,65)"/>
<path d="M0 0 C3.36720387 1.39332574 4.9859524 2.9789286 7 6 C5.00045254 6.04254356 2.99958364 6.04080783 1 6 C0 5 0 5 -0.0625 2.4375 C-0.041875 1.633125 -0.02125 0.82875 0 0 Z " fill="#3E3473" transform="translate(81,72)"/>
<path d="M0 0 C0.78028564 0.05760498 1.56057129 0.11520996 2.36450195 0.17456055 C3.21206055 0.2293457 4.05961914 0.28413086 4.93286133 0.34057617 C5.81393555 0.4134082 6.69500977 0.48624023 7.6027832 0.5612793 C8.49545898 0.62250977 9.38813477 0.68374023 10.30786133 0.74682617 C12.51174906 0.90003762 14.71352526 1.06786063 16.9152832 1.2487793 C16.9152832 1.5787793 16.9152832 1.9087793 16.9152832 2.2487793 C6.0252832 2.7437793 6.0252832 2.7437793 -5.0847168 3.2487793 C-2.0847168 0.2487793 -2.0847168 0.2487793 0 0 Z " fill="#51447A" transform="translate(177.084716796875,42.751220703125)"/>
<path d="M0 0 C3.36591866 1.44253657 5.51047079 3.33264727 8 6 C7.4225 5.814375 6.845 5.62875 6.25 5.4375 C3.79307475 4.95976454 2.35602466 5.24270636 0 6 C0 4.02 0 2.04 0 0 Z " fill="#3A2C6F" transform="translate(140,136)"/>
<path d="M0 0 C0.66 0 1.32 0 2 0 C3.13764351 4.26616316 4 7.56486311 4 12 C3.34 12 2.68 12 2 12 C0.70756464 7.8803623 -0.26252625 4.33168317 0 0 Z " fill="#332564" transform="translate(246,128)"/>
<path d="M0 0 C0.99 0.33 1.98 0.66 3 1 C3 3.97 3 6.94 3 10 C2.34 8.68 1.68 7.36 1 6 C0.01 6.495 0.01 6.495 -1 7 C-0.67 4.69 -0.34 2.38 0 0 Z " fill="#23175D" transform="translate(127,105)"/>
<path d="M0 0 C-1.62339805 1.70884005 -3.29319053 3.37446717 -5 5 C-5.66 5 -6.32 5 -7 5 C-6.625 2.5625 -6.625 2.5625 -6 0 C-3.50907189 -1.24546405 -2.58919267 -0.7767578 0 0 Z " fill="#433673" transform="translate(152,54)"/>
<path d="M0 0 C2.72647685 2.35468455 3.98756342 4.5408417 5 8 C4.625 10.3125 4.625 10.3125 4 12 C3.34 10.02 2.68 8.04 2 6 C1.34 6 0.68 6 0 6 C0 4.02 0 2.04 0 0 Z " fill="#F7C0BD" transform="translate(472,26)"/>
<path d="M0 0 C0.99 0.495 0.99 0.495 2 1 C2 1.99 2 2.98 2 4 C2.66 4 3.32 4 4 4 C4 7.3 4 10.6 4 14 C2.30942525 10.61885051 1.54184533 8.3700175 0.875 4.75 C0.70742187 3.85796875 0.53984375 2.9659375 0.3671875 2.046875 C0.18542969 1.03367187 0.18542969 1.03367187 0 0 Z " fill="#5D5083" transform="translate(122,70)"/>
<path d="M0 0 C0 3 0 3 -1 6 C-2.84765625 6.73046875 -2.84765625 6.73046875 -5.0625 7.1875 C-5.79597656 7.34605469 -6.52945313 7.50460938 -7.28515625 7.66796875 C-8.13400391 7.83232422 -8.13400391 7.83232422 -9 8 C-6.14723863 5.06799526 -3.34920216 2.35684596 0 0 Z " fill="#55497C" transform="translate(109,136)"/>
<path d="M0 0 C0.99 0.495 0.99 0.495 2 1 C2 1.66 2 2.32 2 3 C2.61875 3.226875 3.2375 3.45375 3.875 3.6875 C6.61410209 5.37929835 7.05024472 6.99244161 8 10 C3.79236776 8.4972742 2.1972242 5.76667005 0 2 C0 1.34 0 0.68 0 0 Z " fill="#52487A" transform="translate(166,118)"/>
<path d="M0 0 C0.33 1.32 0.66 2.64 1 4 C0.34 4 -0.32 4 -1 4 C-1.2475 4.763125 -1.495 5.52625 -1.75 6.3125 C-3.10995558 9.2364045 -4.31585826 10.30004356 -7 12 C-5.44298069 7.32894208 -2.91552627 3.91294315 0 0 Z " fill="#F7C0B9" transform="translate(487,78)"/>
<path d="M0 0 C0.33 1.32 0.66 2.64 1 4 C0.34 4 -0.32 4 -1 4 C-1.28875 4.639375 -1.5775 5.27875 -1.875 5.9375 C-3 8 -3 8 -5 9 C-4.67 7.35 -4.34 5.7 -4 4 C-3.34 4 -2.68 4 -2 4 C-1.34 2.68 -0.68 1.36 0 0 Z " fill="#F9D6D3" transform="translate(439,68)"/>
<path d="M0 0 C0 1.66666667 0 3.33333333 0 5 C0.66 5.33 1.32 5.66 2 6 C1.360625 6.28875 0.72125 6.5775 0.0625 6.875 C-2.15206079 7.82823451 -2.15206079 7.82823451 -3 10 C-3.66 10 -4.32 10 -5 10 C-3.66511872 6.40608886 -2.03977277 3.24509304 0 0 Z " fill="#CAC4DC" transform="translate(141,64)"/>
<path d="M0 0 C0 3.60573896 -0.81707462 4.41336566 -3 7.1875 C-3.556875 7.90292969 -4.11375 8.61835937 -4.6875 9.35546875 C-5.120625 9.89816406 -5.55375 10.44085938 -6 11 C-6.33 9.68 -6.66 8.36 -7 7 C-5.68 6.34 -4.36 5.68 -3 5 C-3 4.01 -3 3.02 -3 2 C-2.01 1.34 -1.02 0.68 0 0 Z " fill="#C54A45" transform="translate(511,46)"/>
<path d="M0 0 C0.66 0 1.32 0 2 0 C2.3125 2.3125 2.3125 2.3125 2 5 C-0.375 6.75 -0.375 6.75 -3 8 C-3.99 8.495 -3.99 8.495 -5 9 C-3.50079488 5.88626628 -1.91847864 2.87771795 0 0 Z " fill="#CF2822" transform="translate(543,43)"/>
<path d="M0 0 C0.66 0.33 1.32 0.66 2 1 C-0.88341534 5.21422242 -3.04303419 6.76075855 -8 8 C-7.34 7.01 -6.68 6.02 -6 5 C-5.34 5 -4.68 5 -4 5 C-4 4.34 -4 3.68 -4 3 C-2 1.375 -2 1.375 0 0 Z " fill="#F1B1AB" transform="translate(416,91)"/>
<path d="M0 0 C6.15234375 0.5859375 6.15234375 0.5859375 8 1 C8.33 1.66 8.66 2.32 9 3 C6.03 3 3.06 3 0 3 C0 2.01 0 1.02 0 0 Z " fill="#CA2C22" transform="translate(583,92)"/>
<path d="M0 0 C0.66 0 1.32 0 2 0 C2 0.99 2 1.98 2 3 C4.31 3 6.62 3 9 3 C9 3.33 9 3.66 9 4 C5.37 4 1.74 4 -2 4 C-2 3.34 -2 2.68 -2 2 C-1.34 2 -0.68 2 0 2 C0 1.34 0 0.68 0 0 Z " fill="#B93326" transform="translate(413,122)"/>
<path d="M0 0 C0.66 0 1.32 0 2 0 C1.6875 1.875 1.6875 1.875 1 4 C0.01 4.66 -0.98 5.32 -2 6 C-2.99 5.67 -3.98 5.34 -5 5 C-4.67 4.34 -4.34 3.68 -4 3 C-3.01 3 -2.02 3 -1 3 C-0.67 2.01 -0.34 1.02 0 0 Z " fill="#FEE2E3" transform="translate(411,119)"/>
<path d="M0 0 C0.66 0 1.32 0 2 0 C0.44499019 3.81684226 -2.03595495 6.19195732 -5 9 C-3.7580393 5.56072421 -2.44259716 2.74792181 0 0 Z " fill="#D32A24" transform="translate(533,57)"/>
<path d="M0 0 C3.34373475 0.55728913 6.03312999 1.35173889 9 3 C7.02 3.33 5.04 3.66 3 4 C3 3.34 3 2.68 3 2 C2.01 2 1.02 2 0 2 C0 1.34 0 0.68 0 0 Z " fill="#2B1C61" transform="translate(166,151)"/>
<path d="M0 0 C3.3 0.33 6.6 0.66 10 1 C5.64467851 3.17766075 4.53374042 3.03039555 0 2 C0 1.34 0 0.68 0 0 Z " fill="#372964" transform="translate(22,148)"/>
<path d="M0 0 C0.66 0.66 1.32 1.32 2 2 C1.236875 2.45375 0.47375 2.9075 -0.3125 3.375 C-2.23632814 4.53824492 -4.12941224 5.7529415 -6 7 C-6 6.01 -6 5.02 -6 4 C-3 1.8125 -3 1.8125 0 0 Z " fill="#FDEFEC" transform="translate(396,110)"/>
<path d="M0 0 C0.99 0.33 1.98 0.66 3 1 C-0.465 3.97 -0.465 3.97 -4 7 C-4.33 6.34 -4.66 5.68 -5 5 C-4.34 5 -3.68 5 -3 5 C-3 4.01 -3 3.02 -3 2 C-2.01 2 -1.02 2 0 2 C0 1.34 0 0.68 0 0 Z " fill="#C1504D" transform="translate(400,102)"/>
<path d="M0 0 C0.99 0 1.98 0 3 0 C1.70700306 2.88437779 0.34058637 4.87219421 -2 7 C-2.125 4.625 -2.125 4.625 -2 2 C-1.34 1.34 -0.68 0.68 0 0 Z " fill="#FDE1E1" transform="translate(506,86)"/>
<path d="M0 0 C-0.66 1.32 -1.32 2.64 -2 4 C-2.66 4 -3.32 4 -4 4 C-4.33 4.99 -4.66 5.98 -5 7 C-5.33 6.01 -5.66 5.02 -6 4 C-2.25 0 -2.25 0 0 0 Z " fill="#C53630" transform="translate(440,64)"/>
<path d="M0 0 C3.875 0.875 3.875 0.875 5 2 C5.04080783 3.99958364 5.04254356 6.00045254 5 8 C2.98863724 5.44008376 1.37154504 2.95409701 0 0 Z " fill="#443970" transform="translate(117,62)"/>
<path d="M0 0 C0.75 1.75 0.75 1.75 1 4 C-0.8125 6.25 -0.8125 6.25 -3 8 C-3.66 8 -4.32 8 -5 8 C-3.62845496 5.04590299 -2.01136276 2.55991624 0 0 Z " fill="#F7CACA" transform="translate(514,44)"/>
<path d="M0 0 C1.98 0.99 1.98 0.99 4 2 C3.67 3.65 3.34 5.3 3 7 C2.34 7 1.68 7 1 7 C0.67 4.69 0.34 2.38 0 0 Z " fill="#342666" transform="translate(164,110)"/>
<path d="M0 0 C0.66 1.32 1.32 2.64 2 4 C1.07451225 6.69933926 0.57626463 7.71186768 -2 9 C-1.34 6.03 -0.68 3.06 0 0 Z " fill="#CA2E25" transform="translate(475,64)"/>
<path d="M0 0 C0.33 0.66 0.66 1.32 1 2 C-0.25 4.5625 -0.25 4.5625 -2 7 C-2.99 7.33 -3.98 7.66 -5 8 C-5 7.34 -5 6.68 -5 6 C-4.34 6 -3.68 6 -3 6 C-2.87625 5.38125 -2.7525 4.7625 -2.625 4.125 C-2 2 -2 2 0 0 Z " fill="#F0B7B2" transform="translate(523,32)"/>
<path d="M0 0 C0.99 0 1.98 0 3 0 C1.68775452 3.93673644 0.08089673 6.22719294 -3 9 C-2.30058404 5.85262818 -1.23921302 2.97411124 0 0 Z " fill="#FBD3CF" transform="translate(543,35)"/>
<path d="M0 0 C3.7952131 1.49097658 5.61042731 3.75700849 8 7 C5.33333333 5.66666667 2.66666667 4.33333333 0 3 C0 2.01 0 1.02 0 0 Z " fill="#BD483F" transform="translate(432,33)"/>
<path d="M0 0 C0 3.26795703 -0.57850516 5.0821948 -2 8 C-2.99 8.66 -3.98 9.32 -5 10 C-3.66511872 6.40608886 -2.03977277 3.24509304 0 0 Z " fill="#FCDBD9" transform="translate(538,13)"/>
<path d="M0 0 C0.66 0.33 1.32 0.66 2 1 C0.35 3.64 -1.3 6.28 -3 9 C-4.33332095 6.3333581 -3.67102033 4.83319697 -3 2 C-2.01 2 -1.02 2 0 2 C0 1.34 0 0.68 0 0 Z " fill="#C7564E" transform="translate(538,10)"/>
</svg>
