<svg width="30" height="30" viewBox="0 0 30 30" fill="none" xmlns="http://www.w3.org/2000/svg">
<path d="M14.741 26.8463C9.72406 26.8463 5.64258 22.7648 5.64258 17.7478C5.64258 12.7309 9.72406 8.64941 14.741 8.64941C19.7579 8.64941 23.8394 12.7309 23.8394 17.7478C23.8394 22.7648 19.7579 26.8463 14.741 26.8463ZM14.741 9.76862C10.3421 9.76862 6.7562 13.349 6.7562 17.7534C6.7562 22.1578 10.3365 25.7382 14.741 25.7382C19.1454 25.7382 22.7258 22.1578 22.7258 17.7534C22.7258 13.349 19.1399 9.76862 14.741 9.76862Z" fill="white"/>
<path d="M12.419 6.6394C12.419 6.66167 12.3912 6.66724 12.3856 6.64496C12.135 5.5536 9.8688 0.993251 9.63491 1.08234C9.36764 1.177 9.85766 5.85985 10.214 7.24076C10.2196 7.26303 10.1917 7.2686 10.1806 7.2519C8.59923 4.72951 6.77843 4.77962 6.42763 4.82973C6.40536 4.8353 6.40536 4.86314 6.42208 4.86871C8.60482 5.99349 9.65719 9.20633 9.75741 9.52372C9.76299 9.53485 9.77413 9.54042 9.79082 9.53485C11.0047 8.79985 12.3967 8.33213 13.889 8.19849C13.9001 8.19849 13.9113 8.18735 13.9057 8.17622C13.8389 7.89224 13.2097 4.9411 14.418 2.892C14.4291 2.8753 14.4124 2.85303 14.3957 2.85859C14.0839 2.96439 12.4858 3.91655 12.419 6.6394Z" fill="white"/>
<path d="M19.5525 13.7487C19.9331 12.7386 19.0658 11.4768 17.6154 10.9303C16.165 10.3838 14.6807 10.7596 14.3001 11.7697C13.9195 12.7798 14.7868 14.0417 16.2372 14.5882C17.6876 15.1347 19.1719 14.7588 19.5525 13.7487Z" fill="white"/>
<path d="M8.10931 20.2202V15.6208H9.40668C9.84659 15.6208 10.2531 15.7266 10.4758 15.8937C10.8488 16.1777 10.9491 16.6677 10.9491 16.9516C10.9491 17.3804 10.8043 17.6421 10.6595 17.8314C10.537 17.9873 10.2252 18.1321 10.0136 18.2156C9.73523 18.3214 9.0058 18.2991 9.0058 18.2991L9.00021 20.2257L8.10931 20.2202ZM9.34543 16.4227H9.0058V17.4751H9.34543C9.59601 17.4751 9.73523 17.4305 9.87442 17.3359C10.0136 17.2412 10.086 17.1131 10.086 16.9516C10.086 16.7902 10.0192 16.6621 9.87997 16.5674C9.74078 16.4672 9.60159 16.4227 9.34543 16.4227Z" fill="white"/>
<path d="M16.0383 15.5039H16.8402L18.7556 20.2202H17.7589L17.3691 19.2624H15.5316L15.1419 20.2202H14.1841L16.0383 15.5039ZM17.0907 18.3827L16.7733 17.631C16.6731 17.3748 16.5562 17.0407 16.4281 16.6287H16.4059C16.2555 17.1242 16.1441 17.4583 16.0829 17.631L15.7711 18.3771H17.0907V18.3827Z" fill="white"/>
<path d="M11.4669 20.2536V15.6208H12.3853V19.3961H13.6599V20.2536H11.4669Z" fill="white"/>
<path d="M19.4907 20.2146V18.1878L18.0875 15.593H18.9338L19.8971 17.4027H19.9138L20.8771 15.593H21.7235L20.298 18.1878V20.2146H19.4907Z" fill="white"/>
</svg>
